<svg width="80" height="80" viewBox="0 0 80 80" fill="none" xmlns="http://www.w3.org/2000/svg">
<circle opacity="0.1" cx="40" cy="40" r="40" fill="#A3A3A3"/>
<path d="M27 27L39.5 24.5L57.5 42L41.5 57L24 39.5L27 27Z" fill="white"/>
<path d="M39.1663 24.0436L26.5641 26.5641L24.0436 39.1663C24.0033 39.3681 24.0134 39.5768 24.073 39.7737C24.1326 39.9707 24.24 40.1499 24.3855 40.2954L40.7062 56.6161C40.8223 56.7322 40.9601 56.8243 41.1117 56.8871C41.2634 56.9499 41.4259 56.9822 41.5901 56.9822C41.7542 56.9822 41.9168 56.9499 42.0684 56.8871C42.2201 56.8243 42.3579 56.7322 42.474 56.6161L56.6161 42.474C56.7322 42.3579 56.8243 42.2201 56.8871 42.0684C56.9499 41.9168 56.9822 41.7542 56.9822 41.5901C56.9822 41.4259 56.9499 41.2634 56.8871 41.1117C56.8243 40.9601 56.7322 40.8223 56.6161 40.7062L40.2954 24.3855C40.1499 24.24 39.9707 24.1326 39.7737 24.073C39.5768 24.0134 39.3681 24.0033 39.1663 24.0436V24.0436Z" stroke="#18181B" stroke-width="2" stroke-linecap="round" stroke-linejoin="round"/>
<path d="M33.1241 34.0625C33.6419 34.0625 34.0616 33.6428 34.0616 33.125C34.0616 32.6072 33.6419 32.1875 33.1241 32.1875C32.6063 32.1875 32.1866 32.6072 32.1866 33.125C32.1866 33.6428 32.6063 34.0625 33.1241 34.0625Z" fill="black"/>
<circle cx="41" cy="41" r="8" fill="#FACC15"/>
<path d="M42.9682 43.4005C41.9573 44.2787 40.9747 44.5663 40.0207 44.2633L40.2652 43.2751C40.5657 43.4262 40.9108 43.4617 41.3005 43.3818C41.6858 43.2975 42.058 43.1201 42.4172 42.8495L41.0361 41.4684C40.622 41.7587 40.2572 41.9863 39.9418 42.1512C39.6317 42.3107 39.3214 42.3953 39.0108 42.4049C38.7011 42.4048 38.4201 42.2785 38.1678 42.0262C37.827 41.6854 37.6914 41.2456 37.761 40.7068C37.8315 40.1583 38.111 39.5999 38.5994 39.0318L37.9554 38.3877L38.5718 37.7713L39.2225 38.422C39.66 38.0376 40.0829 37.7829 40.4914 37.6577C40.8999 37.5325 41.3427 37.5057 41.82 37.5774L41.6832 38.5773C41.3054 38.477 40.966 38.4578 40.6651 38.5198C40.3695 38.5764 40.0723 38.7275 39.7736 38.9731L41.1745 40.374C41.5887 40.0838 41.953 39.8611 42.2675 39.7059C42.5829 39.541 42.8976 39.4609 43.2118 39.4655C43.5268 39.4603 43.8127 39.5861 44.0694 39.8428C44.4146 40.188 44.5405 40.6288 44.4469 41.1649C44.3543 41.6914 44.0669 42.2311 43.5846 42.7842L44.2287 43.4282L43.6123 44.0446L42.9682 43.4005ZM39.1572 39.5895C38.8849 39.9149 38.7311 40.2147 38.6958 40.489C38.6562 40.7588 38.7315 40.9889 38.9218 41.1793C39.0945 41.3519 39.3046 41.4073 39.5523 41.3455C39.801 41.2739 40.1008 41.1201 40.4519 40.8842L39.1572 39.5895ZM43.0402 42.2397C43.6052 41.5773 43.6996 41.058 43.3234 40.6818C43.1463 40.5047 42.9313 40.4498 42.6782 40.5169C42.4305 40.5787 42.1262 40.7281 41.7654 40.9649L43.0402 42.2397Z" fill="black" stroke="#18181B" stroke-width="0.5"/>
</svg>
