<svg width="80" height="80" viewBox="0 0 80 80" fill="none" xmlns="http://www.w3.org/2000/svg">
<circle opacity="0.1" cx="40" cy="40" r="40" fill="#A3A3A3"/>
<path d="M31.25 52.5C30.0092 52.4988 28.7827 52.2337 27.6521 51.7222C26.5216 51.2108 25.5127 50.4647 24.6925 49.5336C23.8723 48.6024 23.2595 47.5074 22.8949 46.3213C22.5302 45.1353 22.422 43.8852 22.5775 42.6541C22.7329 41.423 23.1484 40.239 23.7964 39.1807C24.4443 38.1225 25.31 37.2142 26.3359 36.5161C27.3618 35.818 28.5244 35.346 29.7466 35.1316C30.9688 34.9172 32.2227 34.9652 33.4249 35.2724" stroke="#18181B" stroke-width="2" stroke-linecap="round" stroke-linejoin="round"/>
<path d="M32.5 40C32.5002 38.0194 32.971 36.0673 33.8737 34.3043C34.7763 32.5414 36.0849 31.0182 37.6917 29.8603C39.2985 28.7023 41.1575 27.9427 43.1154 27.6441C45.0733 27.3455 47.0742 27.5164 48.9531 28.1428C50.832 28.7691 52.5352 29.833 53.9224 31.2467C55.3095 32.6604 56.3408 34.3835 56.9314 36.274C57.5219 38.1644 57.6548 40.1682 57.3191 42.1201C56.9834 44.072 56.1886 45.9162 55.0004 47.5007" stroke="#18181B" stroke-width="2" stroke-linecap="round" stroke-linejoin="round"/>
<path d="M39 40H43L46 39.5L47.5 40.5L49.5 43.5L52 44.5V46L51 49.5L52 51.5L50.5 53.5L49 54L48 56.5L46 57L42 56L41 57H39.5L37.5 54L34.5 51.5L35.5 50V47L35 45.5L35.5 44L36.9297 43.5234L39 42L41 43L39.4297 45.0234L38 46.5L39.9062 51.75L43.5 53.5L48 51L48.5 48.875L46.5 44.5L39 43V40Z" fill="#FACC15"/>
<circle cx="43.5" cy="48.5" r="4.5" fill="white"/>
<path fill-rule="evenodd" clip-rule="evenodd" d="M46.3297 38.7279C46.1202 38.6667 45.8999 38.6525 45.6843 38.6861C45.4694 38.7196 45.2646 38.7998 45.0841 38.9211L45.0822 38.9223L43.8833 39.7216H42.8977L41.6988 38.9223L41.6969 38.921C41.5164 38.7998 41.3116 38.7196 41.0967 38.6861C40.8811 38.6525 40.6608 38.6667 40.4513 38.7279L40.4513 38.7278L40.4435 38.7302C39.8208 38.9193 39.218 39.1685 38.6435 39.4742L38.6435 39.4742L38.6356 39.4785C38.4441 39.5834 38.2782 39.7293 38.1496 39.9057C38.0217 40.0813 37.9339 40.2828 37.8924 40.496L37.6092 41.9121L36.9122 42.6091L35.496 42.8923C35.2829 42.9338 35.0814 43.0215 34.9058 43.1495C34.7294 43.278 34.5835 43.444 34.4786 43.6354L34.4786 43.6354L34.4744 43.6433C34.1685 44.2178 33.9193 44.8207 33.7302 45.4434L33.7301 45.4434L33.7278 45.4513C33.6667 45.6607 33.6525 45.8811 33.6861 46.0967C33.7196 46.3115 33.7998 46.5163 33.921 46.6967L33.9224 46.6987L34.7216 47.8976V48.8832L33.9223 50.0821L33.921 50.0841C33.7998 50.2645 33.7196 50.4694 33.6861 50.6842C33.6525 50.8997 33.6667 51.1201 33.7279 51.3295L33.7278 51.3296L33.7302 51.3373C33.9192 51.9601 34.1684 52.5629 34.4743 53.1374L34.4742 53.1375L34.4785 53.1454C34.5834 53.3368 34.7293 53.5028 34.9057 53.6313C35.0812 53.7592 35.2827 53.847 35.4958 53.8885L36.9122 54.1718L37.6091 54.8687L37.8917 56.2817L37.8923 56.2849C37.9338 56.4981 38.0216 56.6996 38.1495 56.8751C38.278 57.0516 38.444 57.1975 38.6354 57.3023L38.6354 57.3024L38.6433 57.3066C39.2178 57.6125 39.8207 57.8617 40.4434 58.0507L40.4434 58.0508L40.4512 58.0531C40.6607 58.1142 40.881 58.1284 41.0966 58.0948C41.3114 58.0613 41.5163 57.9811 41.6967 57.8598L41.6986 57.8586L42.8976 57.0593H43.8832L45.0822 57.8586L45.0838 57.8597C45.2643 57.9811 45.4693 58.0614 45.6843 58.0949C45.8998 58.1285 46.1202 58.1142 46.3297 58.0531L46.3297 58.0531L46.3374 58.0508C46.9601 57.8617 47.563 57.6125 48.1374 57.3067L48.1375 57.3068L48.1454 57.3024C48.3368 57.1975 48.5028 57.0517 48.6313 56.8753C48.7592 56.6997 48.847 56.4983 48.8885 56.2851L48.8891 56.2818L49.1718 54.8688L49.8687 54.1718L51.2817 53.8892L51.2849 53.8886C51.4981 53.8471 51.6996 53.7593 51.8752 53.6314C52.0516 53.5028 52.1975 53.3369 52.3024 53.1454L52.3024 53.1455L52.3066 53.1376C52.6124 52.5631 52.8617 51.9603 53.0508 51.3376L53.0508 51.3376L53.0531 51.3297C53.1143 51.1203 53.1285 50.8999 53.0949 50.6843C53.0614 50.4695 52.9812 50.2646 52.8599 50.0842L52.8586 50.0823L52.0593 48.8833V47.8977L52.8586 46.6987L52.8598 46.6969C52.9811 46.5165 53.0614 46.3115 53.0949 46.0967C53.1285 45.8811 53.1143 45.6607 53.0531 45.4512L53.0532 45.4512L53.0508 45.4434C52.8617 44.8207 52.6124 44.2179 52.3066 43.6434L52.3067 43.6434L52.3023 43.6355C52.1975 43.4441 52.0516 43.2781 51.8752 43.1496C51.6997 43.0216 51.4982 42.9339 51.285 42.8924L51.2818 42.8918L49.8688 42.6091L49.1719 41.9122L48.8886 40.4959C48.8471 40.2827 48.7593 40.0812 48.6314 39.9057C48.5028 39.7293 48.3369 39.5834 48.1454 39.4785L48.1454 39.4785L48.1375 39.4742C47.563 39.1685 46.9602 38.9193 46.3375 38.7302L46.3375 38.7301L46.3297 38.7279ZM44.5264 41.0956L45.9154 40.1697C46.4348 40.3283 46.9379 40.5362 47.4178 40.7904L47.7455 42.429C47.7746 42.5742 47.8459 42.7076 47.9506 42.8123L48.9687 43.8303C49.0734 43.935 49.2067 44.0064 49.3519 44.0354L50.9905 44.3632C51.2447 44.8431 51.4526 45.3461 51.6113 45.8655L50.6853 47.2546C50.6031 47.3778 50.5593 47.5225 50.5593 47.6706V49.1104C50.5593 49.2584 50.6031 49.4032 50.6853 49.5264L51.6113 50.9155C51.4526 51.4348 51.2447 51.9379 50.9905 52.4178L49.3519 52.7454C49.2067 52.7745 49.0733 52.8458 48.9686 52.9506L47.9505 53.9687C47.8458 54.0734 47.7745 54.2067 47.7454 54.3519L47.4177 55.9906C46.9378 56.2448 46.4348 56.4527 45.9154 56.6113L44.5263 55.6853C44.4031 55.6031 44.2584 55.5593 44.1103 55.5593H42.6705C42.5225 55.5593 42.3777 55.6031 42.2545 55.6852L40.8654 56.6112C40.346 56.4526 39.843 56.2447 39.3631 55.9905L39.0355 54.3519C39.0064 54.2067 38.9351 54.0733 38.8304 53.9686L37.8123 52.9505C37.7076 52.8458 37.5743 52.7745 37.4291 52.7454L35.7904 52.4177C35.5362 51.9378 35.3283 51.4347 35.1697 50.9153L36.0956 49.5263C36.1778 49.4031 36.2216 49.2584 36.2216 49.1103V47.6705C36.2216 47.5224 36.1778 47.3777 36.0956 47.2545L35.1697 45.8655C35.3283 45.3461 35.5362 44.843 35.7905 44.3631L37.429 44.0355C37.5742 44.0064 37.7076 43.9351 37.8123 43.8303L38.8304 42.8122C38.9352 42.7075 39.0065 42.5741 39.0356 42.4289L39.3632 40.7904C39.8431 40.5362 40.3462 40.3283 40.8656 40.1697L42.2546 41.0956C42.3778 41.1778 42.5225 41.2216 42.6706 41.2216H44.1104C44.2585 41.2216 44.4032 41.1778 44.5264 41.0956ZM39.1013 48.3904C39.1013 46.0216 41.0216 44.1012 43.3905 44.1012C45.7594 44.1012 47.6798 46.0216 47.6798 48.3904C47.6798 50.7593 45.7594 52.6797 43.3905 52.6797C41.0216 52.6797 39.1013 50.7593 39.1013 48.3904ZM43.3905 42.6012C40.1932 42.6012 37.6013 45.1931 37.6013 48.3904C37.6013 51.5878 40.1932 54.1797 43.3905 54.1797C46.5878 54.1797 49.1798 51.5878 49.1798 48.3904C49.1798 45.1931 46.5878 42.6012 43.3905 42.6012Z" fill="black"/>
</svg>
