<svg width="80" height="80" viewBox="0 0 80 80" fill="none" xmlns="http://www.w3.org/2000/svg">
<circle opacity="0.1" cx="40" cy="40" r="40" fill="#A3A3A3"/>
<rect x="27" y="39" width="26" height="9" fill="#FACC15"/>
<rect width="26" height="5" transform="matrix(1 0 0 -1 27 39)" fill="white"/>
<rect width="26" height="5" transform="matrix(1 0 0 -1 27 53)" fill="white"/>
<path fill-rule="evenodd" clip-rule="evenodd" d="M36.4796 24.8546C37.347 23.9873 38.5234 23.5 39.75 23.5C40.9766 23.5 42.153 23.9873 43.0204 24.8546C43.8877 25.722 44.375 26.8984 44.375 28.125V32.75H35.125V28.125C35.125 26.8984 35.6123 25.722 36.4796 24.8546ZM33.125 32.75V28.125C33.125 26.3679 33.823 24.6828 35.0654 23.4404C36.3078 22.198 37.9929 21.5 39.75 21.5C41.5071 21.5 43.1922 22.198 44.4346 23.4404C45.677 24.6828 46.375 26.3679 46.375 28.125V32.75H52.25C53.4926 32.75 54.5 33.7574 54.5 35V38.75V43.75V48.75V52.5C54.5 53.7426 53.4926 54.75 52.25 54.75H27.25C26.0074 54.75 25 53.7426 25 52.5V48.75V43.75V38.75V35C25 33.7574 26.0074 32.75 27.25 32.75H33.125ZM45.375 34.75H52.25C52.3881 34.75 52.5 34.8619 52.5 35V37.75H27V35C27 34.8619 27.1119 34.75 27.25 34.75H34.125H45.375ZM27 39.75V42.75H52.5V39.75H27ZM27 47.75V44.75H52.5V47.75H27ZM27 52.5V49.75H52.5V52.5C52.5 52.6381 52.3881 52.75 52.25 52.75H27.25C27.1119 52.75 27 52.6381 27 52.5Z" fill="#18181B"/>
</svg>
