<svg width="36" height="36" viewBox="0 0 36 36" fill="none" xmlns="http://www.w3.org/2000/svg">
<circle opacity="0.5" cx="18" cy="18" r="18" fill="#E9E9EA"/>
<path fill-rule="evenodd" clip-rule="evenodd" d="M8 17.6585C8 12.3243 12.3243 8 17.6585 8C22.9927 8 27.317 12.3243 27.317 17.6585C27.317 22.9927 22.9927 27.317 17.6585 27.317C12.3243 27.317 8 22.9927 8 17.6585ZM17.6585 6.5C11.4958 6.5 6.5 11.4958 6.5 17.6585C6.5 23.8212 11.4958 28.817 17.6585 28.817C23.8212 28.817 28.817 23.8212 28.817 17.6585C28.817 11.4958 23.8212 6.5 17.6585 6.5ZM19.4728 21.071C19.5081 21.2024 19.5511 21.3187 19.6016 21.4198H21.7397V21.2909C21.6335 21.0837 21.5527 20.836 21.4971 20.5479C21.4414 20.2598 21.4137 19.8959 21.4137 19.4561V15.9382C21.4137 15.4631 21.3252 15.0461 21.1483 14.6872C20.9714 14.3233 20.7262 14.0225 20.4128 13.7849C20.0995 13.5474 19.728 13.368 19.2984 13.2467C18.8738 13.1254 18.4138 13.0647 17.9185 13.0647C17.3675 13.0647 16.8773 13.1355 16.4476 13.277C16.0231 13.4135 15.6616 13.6005 15.3634 13.838C15.0703 14.0756 14.8454 14.3511 14.6886 14.6645C14.537 14.9779 14.4612 15.3089 14.4612 15.6577H16.5689C16.5689 15.3494 16.6675 15.1042 16.8646 14.9222C17.0617 14.7352 17.3751 14.6417 17.8048 14.6417C18.29 14.6417 18.6615 14.758 18.9193 14.9905C19.1771 15.2179 19.306 15.5287 19.306 15.923V16.4083H18.1308C16.852 16.4083 15.8891 16.6459 15.2421 17.1209C14.6002 17.591 14.2793 18.2582 14.2793 19.1225C14.2793 19.4764 14.35 19.8049 14.4915 20.1082C14.633 20.4064 14.8302 20.6642 15.0829 20.8815C15.3356 21.0989 15.6364 21.2682 15.9852 21.3895C16.3389 21.5108 16.7256 21.5715 17.1451 21.5715C17.403 21.5715 17.643 21.5461 17.8654 21.4956C18.0878 21.4502 18.29 21.3869 18.4719 21.3061C18.659 21.2202 18.8283 21.1216 18.9799 21.0104C19.1316 20.8992 19.2655 20.7804 19.3818 20.654C19.407 20.8006 19.4373 20.9396 19.4728 21.071ZM18.1838 19.8656C18.0019 19.9161 17.8048 19.9414 17.5925 19.9414C17.1881 19.9414 16.8849 19.8478 16.6826 19.6609C16.4855 19.4738 16.387 19.2388 16.387 18.9557C16.387 18.7687 16.4223 18.5968 16.4931 18.4402C16.5639 18.2784 16.6726 18.1419 16.8191 18.0308C16.9657 17.9145 17.1552 17.8261 17.3878 17.7654C17.6203 17.6997 17.9008 17.6668 18.2293 17.6668H19.306V19.077C19.2453 19.1832 19.1619 19.2893 19.0558 19.3955C18.9496 19.4965 18.8232 19.5875 18.6766 19.6684C18.5301 19.7493 18.3658 19.815 18.1838 19.8656Z" fill="#222326"/>
</svg>
