<svg width="36" height="36" viewBox="0 0 36 36" fill="none" xmlns="http://www.w3.org/2000/svg">
<circle cx="18" cy="18" r="18" fill="white"/>
<path d="M22.3656 23.9616C22.3388 23.9679 20.0042 24.4286 17.1777 24.9853L12.0387 25.9976L20.5193 25.9988L29 26L28.9652 25.9323C28.9461 25.895 26.889 21.9192 24.3938 17.0972C21.7286 11.9466 19.8535 8.33688 19.8483 8.34694C19.8328 8.37704 17.0773 16.8376 17.0773 16.855C17.0773 16.8643 18.2782 18.4644 19.7458 20.4109L22.4143 23.95L22.3656 23.9616Z" fill="#0089D6"/>
<path d="M9.79417 18.4978C8.25738 21.4674 7 23.9011 7 23.9061C7 23.911 8.13639 23.9135 9.52531 23.9116L12.0506 23.9081L15.5234 15.6033C17.4334 11.0356 19.0246 7.23031 19.0593 7.14699C19.094 7.06368 19.1175 6.99756 19.1116 7.00007C19.1057 7.00257 17.6356 8.37575 15.8446 10.0516L12.5883 13.0985L9.79417 18.4978Z" fill="#0089D6"/>
</svg>
