<svg width="36" height="36" viewBox="0 0 36 36" fill="none" xmlns="http://www.w3.org/2000/svg">
<circle cx="18" cy="18" r="18" fill="white"/>
<path fill-rule="evenodd" clip-rule="evenodd" d="M15.3103 6C15.3103 6 18.7342 8.86364 18.2689 11.4019C18.2064 11.7427 18.0199 12.1507 17.8133 12.603C17.3351 13.6491 16.7488 14.932 17.3384 16.1682C18.2529 18.0795 18.7262 21.7615 14.6139 20.8082C10.5577 19.8703 10.8739 15.1183 13.8875 12.6107C16.9432 10.0677 15.9116 7.27007 15.3103 6ZM18.4374 14.587C18.354 15.2966 18.6023 16.0051 18.8624 16.7471C19.3109 18.0269 19.7944 19.4064 18.6715 21.0627C17.4408 22.8755 19.3278 25.4223 21.7512 24.9581C24.4086 24.4499 25.066 22.8429 24.9949 20.9766C24.9071 18.7406 24.0248 18.0282 22.0832 16.4603L22.0832 16.4603C21.967 16.3664 21.847 16.2695 21.7231 16.1691C19.3519 14.2434 21.1849 10.6093 21.1849 10.6093C21.1849 10.6093 18.6915 12.4603 18.4374 14.587ZM16.1971 22.2247C13.4196 22.1653 11.9688 21.1259 11.2184 20.2435C11.0503 20.0454 10.7881 21.6724 11.3004 23.0554C11.3064 23.0714 11.3124 23.0876 11.3185 23.1038C11.7954 24.3815 12.5446 26.3887 15.4157 27.415C17.862 28.2898 21.2899 28.4429 23.2639 26.0244C23.6981 25.4904 23.1501 25.6847 22.551 25.8971L22.5215 25.9076C21.474 26.2856 19.5159 26.2598 18.0621 25.0893C17.1255 24.3373 16.9145 23.5387 16.766 22.9763C16.6479 22.5293 16.5692 22.2315 16.1971 22.2247Z" fill="#D30035"/>
</svg>
