<svg width="36" height="36" viewBox="0 0 36 36" fill="none" xmlns="http://www.w3.org/2000/svg">
<circle cx="18" cy="18" r="18" fill="white"/>
<path d="M27.1849 19.8354C27.1019 19.8303 26.9075 19.8199 26.8478 19.851L25.515 21.2877C25.3776 21.4534 25.178 21.557 24.9601 21.5699C24.9446 21.5699 24.9264 21.5725 24.9109 21.5725C24.706 21.5725 24.509 21.4922 24.3612 21.3473L24.3326 21.3136L23.1814 19.8846L21.4985 21.2825C21.164 21.5155 20.7154 21.456 20.4536 21.1453L19.3438 19.8251L18.0628 21.0832C17.9047 21.2385 17.6868 21.3188 17.4664 21.3032C17.2512 21.2903 17.0516 21.1867 16.9167 21.0211L15.6695 19.6956L13.8415 21.1971C13.6729 21.3343 13.4266 21.311 13.2892 21.1427C13.1517 20.9745 13.1751 20.7285 13.3436 20.5913L15.208 19.064C15.5451 18.8154 16.0092 18.8724 16.2737 19.1934L17.5235 20.5214L18.8044 19.2633C18.96 19.1106 19.1726 19.0303 19.3878 19.0407C19.6057 19.051 19.8079 19.152 19.9479 19.3177L21.0551 20.6328L22.7406 19.2348C23.0491 19.02 23.4692 19.0562 23.7363 19.3203L23.7648 19.3539L24.9186 20.7855L24.9316 20.7622L26.3215 19.2685C26.6015 19.0174 26.9956 19.0381 27.229 19.051C27.2653 19.0536 27.299 19.0562 27.3301 19.0562C27.6802 19.0588 28.4166 19.0717 29 19.0821C28.8237 16.162 26.3966 13.8502 23.4277 13.8502C22.7224 13.8502 22.0482 13.9822 21.4259 14.2204C21.0422 12.4859 19.6264 11 15.5269 11H9.94423C9.55787 11 9.31673 11.4194 9.5112 11.7533L9.94423 12.4963C10.1387 12.8302 9.89756 13.2496 9.5112 13.2496H8.50253C8.09803 13.2496 7.85948 13.7052 8.09026 14.0366L9.02632 15.375H9.02891C8.69961 16.1853 8.51809 17.0732 8.51809 18C8.51809 21.865 11.6582 25 15.5295 25H23.4303C26.3655 25 28.7692 22.74 28.9948 19.8691C28.4114 19.8587 27.6724 19.8458 27.3249 19.8432C27.2809 19.8406 27.2342 19.838 27.1849 19.8354ZM19.3101 14.1324L18.2003 15.9678L17.0905 14.1324H19.3101ZM14.8086 14.1324L13.6989 15.9678L12.5891 14.1324H14.8086Z" fill="#0891B2"/>
</svg>
