<svg width="36" height="36" viewBox="0 0 36 36" fill="none" xmlns="http://www.w3.org/2000/svg">
<circle cx="18" cy="18" r="18" fill="white"/>
<mask id="mask0" mask-type="alpha" maskUnits="userSpaceOnUse" x="8" y="8" width="20" height="20">
<path fill-rule="evenodd" clip-rule="evenodd" d="M8 8H28V28H8V8Z" fill="white"/>
</mask>
<g mask="url(#mask0)">
<path fill-rule="evenodd" clip-rule="evenodd" d="M18 27.9997C12.5 27.9997 8 23.4997 8 17.9497C8.05 12.4497 12.5 7.94968 18.05 7.99968C23.55 8.04968 28 12.4997 28 18.0997C27.95 23.5497 23.5 27.9997 18 27.9997Z" fill="#0090FF"/>
<path fill-rule="evenodd" clip-rule="evenodd" d="M18.95 16.8002L18.65 18.4002L21.5 18.8002L21.3 19.5502L18.5 19.1502C18.3 19.8002 18.2 20.5002 17.95 21.1002C17.7 21.8002 17.45 22.5002 17.15 23.1502C16.75 24.0002 16.05 24.6002 15.1 24.7502C14.55 24.8502 13.95 24.8002 13.5 24.4502C13.35 24.3502 13.2 24.1502 13.2 24.0002C13.2 23.8002 13.3 23.5502 13.45 23.4502C13.55 23.4002 13.8 23.4502 13.95 23.5002C14.1 23.6502 14.25 23.8502 14.35 24.0502C14.65 24.4502 15.05 24.5002 15.45 24.2002C15.9 23.8002 16.15 23.2502 16.3 22.7002C16.6 21.5002 16.9 20.3502 17.15 19.1502V18.9502L14.5 18.5502L14.6 17.8002L17.35 18.2002L17.7 16.6502L14.85 16.2002L14.95 15.4002L17.9 15.8002C18 15.5002 18.05 15.2502 18.15 15.0002C18.4 14.1002 18.65 13.2002 19.25 12.4002C19.85 11.6002 20.55 11.1002 21.6 11.1502C22.05 11.1502 22.5 11.3002 22.8 11.6502C22.85 11.7002 22.95 11.8002 22.95 11.9002C22.95 12.1002 22.95 12.3502 22.8 12.5002C22.6 12.6502 22.35 12.6002 22.15 12.4002C22 12.2502 21.9 12.1002 21.75 11.9502C21.45 11.5502 21 11.5002 20.65 11.8502C20.4 12.1002 20.15 12.4502 20 12.8002C19.65 13.8502 19.4 14.9502 19.05 16.0502L21.8 16.4502L21.6 17.2002L18.95 16.8002Z" fill="white"/>
</g>
</svg>
