<svg width="36" height="36" viewBox="0 0 36 36" fill="none" xmlns="http://www.w3.org/2000/svg">
<circle opacity="0.5" cx="18" cy="18" r="18" fill="#E9E9EA"/>
<path d="M20.6135 13.4053H21.2196L22.9474 11.6775L23.0321 10.9437C19.8164 8.10505 14.9088 8.4117 12.0701 11.6274C11.2814 12.5199 10.7098 13.5831 10.3972 14.7333C10.5893 14.6546 10.8029 14.6415 11.0034 14.6975L14.4589 14.1272C14.4589 14.1272 14.6343 13.836 14.7262 13.8539C16.263 12.1655 18.8499 11.9687 20.6254 13.4053H20.6135Z" fill="#EA4335"/>
<path d="M25.4091 14.7337C25.0118 13.2708 24.1968 11.9559 23.0633 10.9512L20.6387 13.3758C21.6625 14.2122 22.2459 15.4734 22.2209 16.7955V17.2263C23.4129 17.2263 24.3794 18.1928 24.3794 19.3848C24.3794 20.5768 23.4129 21.5433 22.2209 21.5433H17.9038L17.4731 21.98V24.5693L17.9038 25H22.2209C25.3208 25.0239 27.854 22.5301 27.8779 19.4301C27.8922 17.5472 26.9651 15.7861 25.4091 14.7337Z" fill="#4285F4"/>
<path d="M13.5807 24.9723H17.8977V21.5168H13.5807C13.2728 21.5168 12.9698 21.4499 12.6893 21.3223L12.0832 21.5108L10.3435 23.2386L10.192 23.8447C11.1668 24.5821 12.3576 24.9783 13.5807 24.9723Z" fill="#34A853"/>
<path d="M13.5807 13.7635C10.4796 13.7814 7.9822 16.3098 8.0001 19.4109C8.01083 21.1423 8.81864 22.7722 10.192 23.827L12.6954 21.3237C11.6096 20.8333 11.1263 19.5541 11.6167 18.4683C12.1071 17.3825 13.3863 16.8992 14.4721 17.3896C14.9506 17.6056 15.3336 17.9898 15.5507 18.4683L18.0541 15.9649C16.9898 14.5713 15.3336 13.7563 13.5807 13.7635Z" fill="#FBBC05"/>
</svg>
