<svg width="36" height="36" viewBox="0 0 36 36" fill="none" xmlns="http://www.w3.org/2000/svg">
<circle opacity="0.5" cx="18" cy="18" r="18" fill="#E9E9EA"/>
<path fill-rule="evenodd" clip-rule="evenodd" d="M15.1505 14.2253L15.1306 14.1698C15.0207 13.85 15.037 13.5003 15.1761 13.192L17.6128 7.78346C17.7014 7.58724 17.8362 7.41542 18.0057 7.28275C18.1752 7.15008 18.3744 7.06053 18.5862 7.02176C18.7979 6.98299 19.0159 6.99617 19.2215 7.06017C19.427 7.12417 19.614 7.23708 19.7663 7.3892C19.9563 7.57891 20.0846 7.82169 20.1341 8.08562C20.1836 8.34956 20.1522 8.6223 20.0438 8.86802L17.6242 14.3292C17.5164 14.5739 17.3373 14.7804 17.1103 14.9217C16.8834 15.0631 16.619 15.1327 16.3519 15.1214C16.0848 15.1102 15.8272 15.0187 15.6129 14.8588C15.3986 14.699 15.2374 14.4782 15.1505 14.2253ZM19.488 12.5759C19.3629 12.6908 19.2628 12.8303 19.1941 12.9857C19.0974 13.2037 19.0659 13.445 19.1035 13.6806C19.1411 13.9161 19.2461 14.1357 19.4058 14.3128C19.5656 14.4898 19.7733 14.6168 20.0037 14.6784C20.2341 14.7399 20.4775 14.7333 20.7042 14.6595L23.7615 13.6632C23.9624 13.5981 24.1432 13.4826 24.2866 13.3277C24.43 13.1727 24.5312 12.9835 24.5805 12.7782C24.6298 12.5729 24.6255 12.3584 24.5681 12.1552C24.5107 11.952 24.402 11.767 24.2525 11.6179L24.2127 11.578C24.0495 11.4146 23.8437 11.3004 23.6187 11.2483C23.3937 11.1962 23.1586 11.2084 22.9402 11.2834L19.9214 12.3181C19.7607 12.3733 19.6132 12.461 19.488 12.5759ZM21.8272 15.0963L21.7717 15.1148C21.5194 15.2023 21.2992 15.3637 21.1399 15.578C20.9805 15.7923 20.8893 16.0495 20.8781 16.3163C20.8669 16.5832 20.9362 16.8472 21.077 17.0741C21.2179 17.3009 21.4237 17.4802 21.6678 17.5886L27.129 20.0082C27.3744 20.1173 27.6471 20.1494 27.9111 20.1004C28.1751 20.0513 28.418 19.9234 28.6078 19.7335C28.7603 19.5814 28.8736 19.3946 28.9379 19.189C29.0022 18.9835 29.0156 18.7654 28.977 18.5536C28.9383 18.3417 28.8488 18.1424 28.716 17.9728C28.5833 17.8032 28.4114 17.6684 28.215 17.58L22.8065 15.1419C22.4978 15.0024 22.1475 14.9861 21.8272 15.0963ZM23.4542 19.4925C23.3392 19.3674 23.1996 19.2673 23.0442 19.1984C22.8263 19.1029 22.5855 19.0724 22.3508 19.1105C22.116 19.1486 21.8973 19.2538 21.7209 19.4134C21.5445 19.5729 21.418 19.78 21.3565 20.0098C21.2951 20.2396 21.3014 20.4822 21.3746 20.7085L22.3709 23.7658C22.437 23.9655 22.553 24.145 22.708 24.2873C22.863 24.4296 23.0518 24.5299 23.2564 24.5786C23.4611 24.6274 23.6748 24.623 23.8773 24.566C24.0798 24.5089 24.2643 24.401 24.4134 24.2525L24.4532 24.2127C24.6163 24.0493 24.7304 23.8435 24.7824 23.6186C24.8345 23.3937 24.8225 23.1587 24.7479 22.9402L23.7131 19.9257C23.6574 19.7651 23.5693 19.6176 23.4542 19.4925ZM20.875 21.8287L20.8565 21.7746C20.7687 21.5231 20.6074 21.3037 20.3935 21.1449C20.1796 20.9861 19.923 20.8951 19.6568 20.8838C19.3907 20.8724 19.1272 20.9412 18.9006 21.0813C18.674 21.2213 18.4946 21.4262 18.3857 21.6693L15.9661 27.1305C15.857 27.3761 15.8249 27.649 15.874 27.9132C15.923 28.1774 16.0509 28.4206 16.2407 28.6107C16.3931 28.7629 16.58 28.8758 16.7855 28.9398C16.9911 29.0038 17.2091 29.017 17.4208 28.9782C17.6326 28.9394 17.8318 28.8499 18.0013 28.7172C18.1709 28.5845 18.3057 28.4127 18.3942 28.2165L20.8323 22.8079C20.9709 22.4989 20.9862 22.1486 20.875 21.8287ZM16.4787 23.4527C16.6041 23.3378 16.7043 23.1981 16.7731 23.0426C16.8677 22.8247 16.8975 22.5841 16.8589 22.3497C16.8203 22.1153 16.7149 21.897 16.5554 21.721C16.3959 21.5449 16.189 21.4186 15.9595 21.3572C15.73 21.2957 15.4877 21.3017 15.2615 21.3745L12.2043 22.3708C12.0041 22.4356 11.8237 22.5505 11.6805 22.7048C11.5373 22.859 11.436 23.0473 11.3862 23.2518C11.3364 23.4563 11.3398 23.6701 11.396 23.8729C11.4523 24.0757 11.5595 24.2607 11.7076 24.4104L11.746 24.4502C11.9101 24.6149 12.1174 24.7299 12.344 24.782C12.5706 24.8341 12.8074 24.8213 13.027 24.7448L16.0444 23.7101C16.2054 23.6552 16.3532 23.5675 16.4787 23.4527ZM14.1698 20.9119L14.2253 20.8934C14.4782 20.8065 14.699 20.6453 14.8588 20.431C15.0187 20.2167 15.1102 19.9591 15.1214 19.692C15.1327 19.4249 15.0631 19.1605 14.9217 18.9336C14.7804 18.7066 14.5739 18.5275 14.3292 18.4197L8.86802 16.0001C8.62242 15.8911 8.34952 15.8593 8.08545 15.9089C7.82138 15.9585 7.57859 16.087 7.3892 16.2776C7.23708 16.4299 7.12417 16.6169 7.06017 16.8224C6.99617 17.028 6.98299 17.246 7.02176 17.4577C7.06053 17.6695 7.15008 17.8687 7.28275 18.0382C7.41542 18.2077 7.58724 18.3425 7.78346 18.4311L13.192 20.8678C13.5004 21.0065 13.8502 21.0222 14.1698 20.9119ZM12.5216 16.5578C12.6357 16.6829 12.7743 16.7832 12.9287 16.8526C13.1475 16.9507 13.39 16.9829 13.6268 16.9454C13.8636 16.9078 14.0843 16.8022 14.262 16.6412C14.4397 16.4803 14.5666 16.2711 14.6274 16.0392C14.6881 15.8073 14.6799 15.5627 14.6039 15.3353L13.6076 12.2781C13.5421 12.0775 13.4262 11.897 13.2711 11.7538C13.116 11.6107 12.9268 11.5097 12.7215 11.4605C12.5163 11.4112 12.3018 11.4154 12.0987 11.4726C11.8955 11.5297 11.7104 11.638 11.5609 11.787L11.5211 11.8269C11.3565 11.9911 11.2416 12.1984 11.1895 12.425C11.1374 12.6516 11.1502 12.8882 11.2264 13.1079L12.2654 16.1253C12.3203 16.2855 12.4075 16.4326 12.5216 16.5578Z" fill="#4953E9"/>
</svg>
