<svg width="36" height="36" viewBox="0 0 36 36" fill="none" xmlns="http://www.w3.org/2000/svg">
<circle opacity="0.5" cx="18" cy="18" r="18" fill="#E9E9EA"/>
<path fill-rule="evenodd" clip-rule="evenodd" d="M28.844 18C28.844 23.9891 23.9891 28.844 18 28.844C12.011 28.844 7.15601 23.9891 7.15601 18C7.15601 12.011 12.011 7.15601 18 7.15601C23.9891 7.15601 28.844 12.011 28.844 18Z" fill="white"/>
<path fill-rule="evenodd" clip-rule="evenodd" d="M17.8739 7.00071C15.6766 7.0255 13.6321 7.69833 11.9224 8.83595L12.3249 9.34562C13.9862 8.25244 15.9791 7.62383 18.1176 7.64773C23.6376 7.70941 28.1694 12.1418 28.3475 17.6593C28.5403 23.6367 23.6365 28.5405 17.6591 28.3475C12.1417 28.1694 7.70941 23.6375 7.64773 18.1175C7.6239 15.9791 8.25251 13.9862 9.34555 12.3249L8.83595 11.9224C7.69826 13.6321 7.0255 15.6766 7.00071 17.8739C6.93288 23.8858 11.724 28.8613 17.7465 28.9971C24.0179 29.1386 29.1387 24.0178 28.9972 17.7465C28.8612 11.724 23.8857 6.93281 17.8739 7.00071Z" fill="#7F8C8D"/>
<path fill-rule="evenodd" clip-rule="evenodd" d="M11.5294 10.451C11.5294 11.0466 11.0466 11.5294 10.451 11.5294C9.85539 11.5294 9.37256 11.0466 9.37256 10.451C9.37256 9.85539 9.85539 9.37256 10.451 9.37256C11.0466 9.37256 11.5294 9.85539 11.5294 10.451Z" fill="#1ED660"/>
<path fill-rule="evenodd" clip-rule="evenodd" d="M21.2353 18V21.2354H18.0001C16.2132 21.2354 14.7647 19.7868 14.7647 18C14.7647 16.2132 16.2132 14.7647 18.0001 14.7647C19.7868 14.7647 21.2353 16.2132 21.2353 18ZM18.0408 12.6081C15.0441 12.5858 12.6078 15.0084 12.6078 18C12.6078 20.978 15.022 23.3922 18.0001 23.3922H23.3922V18.0677C23.3922 15.0945 21.014 12.6301 18.0408 12.6081Z" fill="#1ED660"/>
</svg>
