<svg width="36" height="36" viewBox="0 0 36 36" fill="none" xmlns="http://www.w3.org/2000/svg">
<circle cx="18" cy="18" r="18" fill="white"/>
<path d="M15.938 21.7281C15.9438 21.7281 15.9497 21.7281 15.9555 21.728C15.9569 21.728 15.9584 21.7281 15.9599 21.7281H17.4486C17.4489 21.8368 17.449 21.901 17.449 21.9208C17.4457 23.4703 17.446 25.0193 17.4487 26.5687C17.4488 26.6781 17.4151 26.7403 17.3176 26.788C16.8065 27.0397 16.4207 27.6891 16.5259 28.3836C16.648 29.1904 17.4595 29.7997 18.2427 29.6432C18.9326 29.5056 19.3858 29.0245 19.4829 28.2843C19.5486 27.7823 19.3122 27.1197 18.6802 26.7878C18.5944 26.7431 18.5471 26.6941 18.5474 26.5865C18.5505 25.0816 18.5508 23.5766 18.5474 22.072C18.5474 22.0237 18.5553 21.9892 18.5707 21.9639V21.7281H20.3889C20.4458 21.7281 20.5024 21.7234 20.5581 21.7143C20.9777 21.6705 21.3667 21.5243 21.6997 21.3012L24.3141 22.8481L24.3038 22.8563C24.3736 22.8968 24.4433 22.9373 24.513 22.9778C24.643 23.0529 24.6932 23.136 24.6893 23.2914C24.6661 24.1919 25.4348 24.9275 26.3311 24.83C27.211 24.7344 27.8345 23.8693 27.6303 22.9946C27.3857 21.9463 26.274 21.4732 25.376 22.0398C25.2813 22.0994 25.2129 22.1157 25.112 22.0553C24.3521 21.6019 23.5905 21.1515 22.8257 20.7068C22.7858 20.6837 22.7581 20.6611 22.7406 20.6362L22.4748 20.4792C22.6955 20.1038 22.8222 19.6662 22.8222 19.1988C22.8222 18.2711 22.3253 17.4659 21.588 17.0258L21.5975 17.0202C21.6103 17.0104 21.6249 17.0007 21.6415 16.9909C21.9649 16.8018 22.2882 16.6123 22.6114 16.4226L24.7588 15.1568C24.8775 15.0866 24.9962 15.0163 25.1149 14.9459C25.208 14.891 25.2712 14.8901 25.3626 14.9528C25.6884 15.1761 26.0536 15.2468 26.4368 15.1782C27.1827 15.0447 27.7233 14.3552 27.6569 13.5414C27.5845 12.6585 26.7367 11.9985 25.8899 12.19C25.1468 12.3581 24.6799 12.9513 24.6885 13.7312C24.6897 13.864 24.6536 13.9397 24.5375 14.0075C24.2382 14.1825 23.939 14.3578 23.6399 14.5333L23.6401 14.5337L20.9029 16.1531C20.4205 15.2901 19.5598 14.6691 18.5497 14.5068C18.5499 13.1949 18.5524 11.8829 18.5455 10.571C18.5445 10.3741 18.5895 10.26 18.7701 10.1541C19.4175 9.77412 19.6636 8.95615 19.3674 8.25866C19.0686 7.55508 18.3055 7.17923 17.5897 7.40194C16.9382 7.60465 16.5751 8.0747 16.5112 8.7588C16.4621 9.28666 16.7066 9.87306 17.2964 10.2023C17.387 10.2528 17.4501 10.2972 17.4498 10.4242C17.4486 10.8104 17.4477 11.1965 17.4471 11.5827H17.4688V14.5114C16.5734 14.6631 15.784 15.1775 15.2836 15.9229C15.1555 15.9517 15.0305 15.9888 14.9091 16.0336C13.7815 15.3754 12.6589 14.708 11.5293 14.053C11.3599 13.9549 11.2782 13.8496 11.3064 13.6503C11.3177 13.5709 11.2937 13.4857 11.281 13.4039C11.1653 12.6589 10.4519 12.0357 9.59088 12.1802C8.74618 12.3222 8.20982 13.103 8.34926 13.9387C8.52704 15.006 9.71943 15.5462 10.619 14.9624C10.7205 14.8965 10.7907 14.8914 10.8948 14.9533C11.2152 15.1442 11.5361 15.3343 11.8573 15.524L11.8694 15.5024L13.8728 16.6854C13.323 17.2177 12.9802 17.9616 12.9802 18.7894C12.9802 19.4292 13.1849 20.0187 13.5316 20.4992L11.1977 21.8748L11.1962 21.8645C11.083 21.9307 10.9697 21.9966 10.8563 22.0625C10.8057 22.0919 10.7073 22.0858 10.6558 22.0541C10.4138 21.9049 10.156 21.8057 9.8739 21.798C8.93537 21.7734 8.3646 22.5565 8.33251 23.2368C8.29538 24.0336 8.88562 24.8498 9.8402 24.8425C10.6773 24.8361 11.3144 24.1504 11.3061 23.295C11.3048 23.1421 11.3488 23.0557 11.4801 22.9795C12.1249 22.6045 13.0875 22.038 14.3678 21.2801C14.8238 21.5642 15.3627 21.7281 15.938 21.7281ZM27.0795 15.2931C26.9705 15.3597 26.9326 15.4274 26.9329 15.5544C26.9367 17.5202 26.9363 19.486 26.9334 21.4513C26.9332 21.5694 26.9627 21.6406 27.0687 21.703C27.7524 22.1065 28.0984 22.8509 27.9756 23.6334C27.8579 24.3833 27.271 24.9993 26.5109 25.1467C26.0702 25.2326 25.6433 25.1642 25.2571 24.9222C25.1393 24.8486 25.0564 24.8616 24.946 24.9265C23.2916 25.9053 21.6354 26.8816 19.9773 27.8542C19.8639 27.9208 19.8214 27.994 19.8217 28.1292C19.8234 29.075 19.1088 29.898 18.216 29.9897C17.2652 30.0877 16.4246 29.4774 16.2191 28.535C16.1877 28.3901 16.1771 28.2386 16.1738 28.0903C16.1714 27.9898 16.1441 27.9283 16.0567 27.8765C14.3757 26.8888 12.696 25.8987 11.0171 24.9072C10.9262 24.8531 10.8548 24.8527 10.7631 24.9094C9.66605 25.5839 8.26784 24.9373 8.03517 23.6772C7.88837 22.8812 8.20558 22.1369 8.90308 21.7177C9.01325 21.6512 9.0631 21.5843 9.06289 21.4468C9.05785 19.4808 9.05866 17.5153 9.06169 15.5497C9.06178 15.4316 9.03172 15.3617 8.92588 15.299C8.22566 14.8835 7.89624 14.1617 8.03073 13.3513C8.16432 12.5462 8.77383 11.9555 9.56707 11.8401C9.99224 11.7784 10.4023 11.8575 10.7701 12.0975C10.8556 12.1533 10.9191 12.1516 11.006 12.1003C12.68 11.1109 14.3553 10.1242 16.0319 9.1398C16.1333 9.08023 16.1728 9.01191 16.1731 8.88989C16.1758 7.80727 17.0133 6.97847 18.0746 7.00043C18.9017 7.01733 19.6757 7.71472 19.7931 8.54846C19.8037 8.62513 19.8206 8.67233 19.8206 8.77786C19.8206 9.00902 19.904 9.10703 20.0801 9.20988C21.7069 10.1607 23.3292 11.1189 24.9504 12.0788C25.0618 12.145 25.1428 12.1476 25.2588 12.0805C26.3599 11.4389 27.6951 12.0538 27.9631 13.3232C27.9884 13.4414 27.986 13.5656 27.9947 13.6735C27.9767 14.3941 27.6705 14.9311 27.0795 15.2931ZM25.7583 23.3236C25.7583 23.0732 25.9344 22.8914 26.1755 22.892C26.4077 22.8932 26.6055 23.0889 26.6078 23.3205C26.6104 23.5436 26.399 23.7593 26.179 23.7597C25.9433 23.7597 25.7584 23.5681 25.7583 23.3236ZM17.5733 8.86258C17.5742 8.62018 17.7593 8.43314 17.9984 8.43293C18.2379 8.43272 18.4216 8.61936 18.4225 8.86268C18.4231 9.096 18.2236 9.30232 17.9992 9.29944C17.7711 9.29717 17.5726 9.09332 17.5733 8.86258ZM10.2372 23.3253C10.2363 23.5697 10.0498 23.7616 9.81537 23.7597C9.59391 23.7575 9.38919 23.5466 9.38818 23.3188C9.38707 23.0913 9.58967 22.892 9.82213 22.892C10.063 22.8921 10.2381 23.0749 10.2372 23.3253ZM18.0031 27.7152C18.242 27.7169 18.4235 27.9025 18.4224 28.1441C18.4208 28.3847 18.2367 28.566 17.9945 28.5644C17.7544 28.5632 17.5707 28.3763 17.5733 28.1354C17.5761 27.8959 17.7632 27.7134 18.0031 27.7152ZM9.82688 14.1063C9.58473 14.1085 9.39545 13.9283 9.38828 13.6893C9.38112 13.4564 9.57262 13.2609 9.81134 13.2574C10.0606 13.2535 10.2337 13.4232 10.2372 13.6742C10.241 13.9263 10.072 14.1041 9.82688 14.1063ZM26.1703 14.107C25.9255 14.1052 25.7559 13.9272 25.7583 13.6749C25.7607 13.4246 25.9344 13.2544 26.1836 13.2577C26.4225 13.2611 26.6127 13.4548 26.607 13.689C26.6014 13.9262 26.4108 14.1087 26.1703 14.107ZM15.938 20.679C14.872 20.679 14.0079 19.8329 14.0079 18.7894C14.0079 17.75 14.8651 16.9066 15.9251 16.8998C16.2643 16.0866 17.0757 15.514 18.0225 15.514C19.264 15.514 20.2723 16.4982 20.2894 17.7186C20.2907 17.7186 20.292 17.7186 20.2933 17.7186C21.1224 17.7186 21.7945 18.3813 21.7945 19.1988C21.7945 19.9787 21.1826 20.6179 20.4063 20.6748C20.4011 20.6775 20.3952 20.679 20.3889 20.679H15.9599C15.959 20.679 15.9581 20.679 15.9573 20.6788C15.9508 20.679 15.9444 20.679 15.938 20.679Z" fill="#0055C6"/>
</svg>
