<svg width="182" height="44" viewBox="0 0 182 44" fill="none" xmlns="http://www.w3.org/2000/svg">
<path d="M70.2904 28.5619C70.1968 28.3747 70.1172 28.1594 70.0517 27.916C69.9862 27.6726 69.9301 27.4152 69.8833 27.1438C69.668 27.3778 69.4199 27.5978 69.1392 27.8037C68.8584 28.0097 68.5447 28.1921 68.1985 28.3512C67.8615 28.5011 67.4871 28.618 67.0753 28.7022C66.6635 28.7959 66.2188 28.8426 65.7415 28.8426C64.9647 28.8426 64.2486 28.7303 63.5934 28.5058C62.9475 28.2811 62.3907 27.9674 61.9226 27.565C61.4547 27.1625 61.0896 26.6853 60.8276 26.1329C60.5655 25.5714 60.4344 24.9629 60.4344 24.3077C60.4344 22.7072 61.0289 21.4718 62.2176 20.6013C63.4156 19.7214 65.1987 19.2816 67.5667 19.2816H69.7428V18.383C69.7428 17.6529 69.5042 17.0773 69.0268 16.6561C68.5494 16.2255 67.8615 16.0103 66.9629 16.0103C66.1674 16.0103 65.5871 16.1834 65.2221 16.5298C64.857 16.8667 64.6745 17.3207 64.6745 17.8916H60.7715C60.7715 17.2457 60.9119 16.6326 61.1926 16.0524C61.4828 15.472 61.8992 14.962 62.4421 14.522C62.9944 14.0821 63.6636 13.7358 64.4499 13.4831C65.2454 13.221 66.1533 13.09 67.1736 13.09C68.0909 13.09 68.9425 13.2023 69.7288 13.4269C70.5243 13.6516 71.2124 13.9838 71.7926 14.4237C72.373 14.8637 72.8269 15.4206 73.1546 16.0945C73.4821 16.759 73.6459 17.5312 73.6459 18.4111V24.9255C73.6459 25.7398 73.6974 26.4138 73.8004 26.9473C73.9033 27.4808 74.0531 27.9394 74.2496 28.3232V28.5619H70.2904ZM66.5698 25.8241C66.9629 25.8241 67.328 25.7773 67.6649 25.6837C68.0019 25.5901 68.306 25.4684 68.5776 25.3186C68.849 25.1689 69.0829 25.0005 69.2795 24.8132C69.476 24.6167 69.6306 24.4201 69.7428 24.2236V21.6122H67.7492C67.1407 21.6122 66.6213 21.673 66.1907 21.7947C65.7602 21.907 65.4092 22.0708 65.1378 22.2861C64.8663 22.4919 64.665 22.7446 64.534 23.0443C64.403 23.3344 64.3375 23.6526 64.3375 23.9989C64.3375 24.5231 64.52 24.9583 64.885 25.3046C65.2595 25.651 65.821 25.8241 66.5698 25.8241Z" fill="#0891B2"/>
<path d="M88.9773 13.09C89.567 13.09 90.1099 13.1321 90.606 13.2163C91.1114 13.2912 91.5186 13.3754 91.8274 13.469L91.2518 17.3581C90.737 17.2364 90.2082 17.1474 89.6653 17.0913C89.1317 17.0257 88.6217 16.993 88.135 16.993C87.0398 16.993 86.16 17.2037 85.4954 17.6248C84.8402 18.046 84.3489 18.6498 84.0212 19.436V28.5619H80.1182V13.3708H83.7545L83.9371 15.8558C84.5547 14.9947 85.2942 14.3208 86.1554 13.8341C87.0164 13.338 87.957 13.09 88.9773 13.09Z" fill="#0891B2"/>
<path d="M105.053 23.8025L106.373 13.371H109.953L107.229 28.5621H103.803L101.81 18.9027L99.8863 28.5621H96.4607L93.7369 13.371H97.303L98.6227 23.8447L100.532 13.371H103.144L105.053 23.8025Z" fill="#0891B2"/>
<path d="M119.977 28.8426C118.807 28.8426 117.745 28.6508 116.79 28.2671C115.836 27.8833 115.017 27.3638 114.333 26.7086C113.65 26.0441 113.121 25.2672 112.747 24.378C112.382 23.4794 112.199 22.5201 112.199 21.4999V20.9382C112.199 19.7777 112.382 18.7199 112.747 17.7652C113.112 16.8012 113.622 15.9728 114.277 15.2802C114.932 14.5876 115.709 14.0494 116.608 13.6656C117.506 13.2818 118.484 13.09 119.542 13.09C120.637 13.09 121.611 13.2725 122.462 13.6375C123.323 13.9932 124.049 14.4986 124.639 15.1538C125.238 15.809 125.692 16.5999 126 17.5265C126.309 18.4438 126.464 19.4594 126.464 20.5732V22.2298H116.159C116.233 22.7446 116.383 23.2174 116.608 23.6479C116.842 24.0692 117.137 24.4341 117.492 24.7431C117.848 25.0519 118.255 25.2906 118.714 25.459C119.172 25.6276 119.673 25.7118 120.216 25.7118C120.6 25.7118 120.979 25.6744 121.353 25.5994C121.737 25.5246 122.102 25.417 122.448 25.2766C122.795 25.1268 123.118 24.9442 123.417 24.729C123.717 24.5137 123.979 24.261 124.203 23.9709L126.155 26.0768C125.912 26.4232 125.593 26.7647 125.2 27.1017C124.816 27.4293 124.358 27.7242 123.824 27.9863C123.3 28.239 122.715 28.4448 122.069 28.6039C121.424 28.7632 120.726 28.8426 119.977 28.8426ZM119.514 16.2489C119.074 16.2489 118.672 16.3285 118.307 16.4876C117.942 16.6373 117.619 16.8573 117.338 17.1474C117.066 17.4377 116.837 17.7839 116.65 18.1864C116.463 18.5888 116.322 19.0382 116.229 19.5343H122.631V19.2253C122.612 18.8135 122.533 18.4251 122.392 18.06C122.252 17.6951 122.051 17.3815 121.788 17.1194C121.526 16.848 121.204 16.6373 120.82 16.4876C120.445 16.3285 120.01 16.2489 119.514 16.2489Z" fill="#0891B2"/>
<path d="M139.366 28.5619C139.273 28.3747 139.193 28.1594 139.127 27.916C139.062 27.6726 139.006 27.4152 138.959 27.1438C138.743 27.3778 138.496 27.5978 138.215 27.8037C137.934 28.0097 137.62 28.1921 137.275 28.3512C136.937 28.5011 136.563 28.618 136.152 28.7022C135.739 28.7959 135.295 28.8426 134.818 28.8426C134.041 28.8426 133.325 28.7303 132.669 28.5058C132.024 28.2811 131.467 27.9674 130.999 27.565C130.53 27.1625 130.166 26.6853 129.903 26.1329C129.641 25.5714 129.51 24.9629 129.51 24.3077C129.51 22.7072 130.105 21.4718 131.293 20.6013C132.491 19.7214 134.275 19.2816 136.642 19.2816H138.819V18.383C138.819 17.6529 138.58 17.0773 138.103 16.6561C137.626 16.2255 136.937 16.0103 136.039 16.0103C135.243 16.0103 134.662 16.1834 134.298 16.5298C133.932 16.8667 133.751 17.3207 133.751 17.8916H129.847C129.847 17.2457 129.988 16.6326 130.268 16.0524C130.559 15.472 130.975 14.962 131.518 14.522C132.071 14.0821 132.739 13.7358 133.525 13.4831C134.321 13.221 135.229 13.09 136.249 13.09C137.166 13.09 138.019 13.2023 138.805 13.4269C139.6 13.6516 140.288 13.9838 140.868 14.4237C141.449 14.8637 141.903 15.4206 142.23 16.0945C142.558 16.759 142.721 17.5312 142.721 18.4111V24.9255C142.721 25.7398 142.774 26.4138 142.877 26.9473C142.98 27.4808 143.128 27.9394 143.325 28.3232V28.5619H139.366ZM135.646 25.8241C136.039 25.8241 136.403 25.7773 136.741 25.6837C137.078 25.5901 137.382 25.4684 137.653 25.3186C137.925 25.1689 138.159 25.0005 138.356 24.8132C138.552 24.6167 138.706 24.4201 138.819 24.2236V21.6122H136.825C136.216 21.6122 135.698 21.673 135.266 21.7947C134.836 21.907 134.485 22.0708 134.214 22.2861C133.942 22.4919 133.741 22.7446 133.611 23.0443C133.479 23.3344 133.414 23.6526 133.414 23.9989C133.414 24.5231 133.595 24.9583 133.961 25.3046C134.335 25.651 134.898 25.8241 135.646 25.8241Z" fill="#0891B2"/>
<path d="M153.603 24.0552L153.8 25.1504L153.997 24.0974L157.338 13.371H161.409L155.638 28.5621H151.974L146.176 13.371H150.247L153.603 24.0552Z" fill="#0891B2"/>
<path d="M171.785 28.8426C170.615 28.8426 169.552 28.6508 168.597 28.2671C167.642 27.8833 166.824 27.3638 166.14 26.7086C165.457 26.0441 164.928 25.2672 164.554 24.378C164.189 23.4794 164.006 22.5201 164.006 21.4999V20.9382C164.006 19.7777 164.189 18.7199 164.554 17.7652C164.919 16.8012 165.429 15.9728 166.084 15.2802C166.74 14.5876 167.517 14.0494 168.415 13.6656C169.314 13.2818 170.291 13.09 171.349 13.09C172.445 13.09 173.417 13.2725 174.269 13.6375C175.13 13.9932 175.856 14.4986 176.446 15.1538C177.044 15.809 177.498 16.5999 177.807 17.5265C178.117 18.4438 178.271 19.4594 178.271 20.5732V22.2298H167.965C168.041 22.7446 168.19 23.2174 168.415 23.6479C168.648 24.0692 168.944 24.4341 169.299 24.7431C169.655 25.0519 170.062 25.2906 170.521 25.459C170.979 25.6276 171.479 25.7118 172.023 25.7118C172.406 25.7118 172.786 25.6744 173.16 25.5994C173.543 25.5246 173.909 25.417 174.256 25.2766C174.602 25.1268 174.924 24.9442 175.224 24.729C175.523 24.5137 175.786 24.261 176.01 23.9709L177.961 26.0768C177.718 26.4232 177.4 26.7647 177.007 27.1017C176.623 27.4293 176.164 27.7242 175.631 27.9863C175.107 28.239 174.522 28.4448 173.876 28.6039C173.23 28.7632 172.533 28.8426 171.785 28.8426ZM171.321 16.2489C170.881 16.2489 170.478 16.3285 170.114 16.4876C169.748 16.6373 169.425 16.8573 169.145 17.1474C168.874 17.4377 168.644 17.7839 168.457 18.1864C168.27 18.5888 168.129 19.0382 168.035 19.5343H174.437V19.2253C174.419 18.8135 174.339 18.4251 174.199 18.06C174.059 17.6951 173.857 17.3815 173.596 17.1194C173.333 16.848 173.01 16.6373 172.626 16.4876C172.252 16.3285 171.816 16.2489 171.321 16.2489Z" fill="#0891B2"/>
<path fill-rule="evenodd" clip-rule="evenodd" d="M4.19177 21.9888C4.19177 11.5436 12.6592 3.07617 23.1044 3.07617C33.5495 3.07617 42.017 11.5436 42.017 21.9888C42.017 32.4339 33.5495 40.9013 23.1044 40.9013C12.6592 40.9013 4.19177 32.4339 4.19177 21.9888ZM23.1044 0.576172C11.2785 0.576172 1.69177 10.1629 1.69177 21.9888C1.69177 33.8146 11.2785 43.4013 23.1044 43.4013C34.9302 43.4013 44.517 33.8146 44.517 21.9888C44.517 10.1629 34.9302 0.576172 23.1044 0.576172ZM26.6189 28.5993C26.6873 28.8538 26.7705 29.079 26.8684 29.2748H31.0102V29.0251C30.8045 28.6238 30.6479 28.144 30.5402 27.5859C30.4324 27.0278 30.3787 26.3229 30.3787 25.471V18.6563C30.3787 17.736 30.2073 16.9282 29.8645 16.233C29.5219 15.528 29.047 14.9454 28.4399 14.4852C27.8328 14.0251 27.1133 13.6775 26.281 13.4425C25.4585 13.2075 24.5675 13.09 23.608 13.09C22.5407 13.09 21.591 13.2271 20.7587 13.5013C19.9363 13.7657 19.2362 14.1278 18.6586 14.5881C18.0907 15.0483 17.6549 15.5819 17.3513 16.189C17.0576 16.796 16.9108 17.4373 16.9108 18.1129H20.9937C20.9937 17.5157 21.1847 17.0408 21.5665 16.6882C21.9484 16.3261 22.5554 16.1448 23.3877 16.1448C24.3277 16.1448 25.0474 16.3701 25.5466 16.8205C26.046 17.2611 26.2957 17.8632 26.2957 18.627V19.5669H24.0193C21.5421 19.5669 19.6769 20.0271 18.4236 20.9474C17.18 21.8581 16.5584 23.1505 16.5584 24.8248C16.5584 25.5102 16.6953 26.1466 16.9695 26.7341C17.2437 27.3118 17.6255 27.8112 18.1152 28.2322C18.6047 28.6532 19.1872 28.9811 19.8629 29.2161C20.5482 29.4511 21.2973 29.5687 22.1099 29.5687C22.6094 29.5687 23.0744 29.5196 23.5052 29.4217C23.936 29.3337 24.3277 29.2112 24.6801 29.0546C25.0424 28.8882 25.3704 28.6972 25.6642 28.4817C25.9579 28.2664 26.2174 28.0362 26.4426 27.7915C26.4915 28.0754 26.5502 28.3447 26.6189 28.5993ZM24.122 26.2641C23.7696 26.362 23.3877 26.411 22.9765 26.411C22.1931 26.411 21.6057 26.2298 21.214 25.8676C20.8322 25.5053 20.6413 25.05 20.6413 24.5017C20.6413 24.1394 20.7098 23.8065 20.8469 23.503C20.984 23.1896 21.1945 22.9252 21.4784 22.7099C21.7624 22.4847 22.1295 22.3134 22.5799 22.1958C23.0304 22.0686 23.5738 22.0049 24.2101 22.0049H26.2957V24.7367C26.1782 24.9422 26.0166 25.1479 25.811 25.3535C25.6053 25.5493 25.3606 25.7256 25.0767 25.8822C24.7927 26.0389 24.4745 26.1661 24.122 26.2641Z" fill="#0891B2"/>
</svg>
