<svg width="181" height="44" viewBox="0 0 181 44" fill="none" xmlns="http://www.w3.org/2000/svg">
<mask id="mask0" mask-type="alpha" maskUnits="userSpaceOnUse" x="0" y="0" width="45" height="44">
<path fill-rule="evenodd" clip-rule="evenodd" d="M0.564453 0H44.5645V44H0.564453V0Z" fill="#FB923C"/>
</mask>
<g mask="url(#mask0)">
<path fill-rule="evenodd" clip-rule="evenodd" d="M22.5645 44.0001C10.4645 44.0001 0.564453 34.1001 0.564453 21.8901C0.674453 9.79006 10.4645 -0.109947 22.6745 5.34013e-05C34.7745 0.110053 44.5645 9.90006 44.5645 22.2201C44.4545 34.2101 34.6645 44.0001 22.5645 44.0001Z" fill="#0891B2"/>
<path fill-rule="evenodd" clip-rule="evenodd" d="M24.6545 19.3599L23.9945 22.8799L30.2645 23.7599L29.8245 25.4099L23.6645 24.5299C23.2245 25.9599 23.0045 27.4999 22.4545 28.8199C21.9045 30.3599 21.3545 31.8999 20.6945 33.3299C19.8145 35.1999 18.2745 36.5199 16.1845 36.8499C14.9745 37.0699 13.6545 36.9599 12.6645 36.1899C12.3345 35.9699 12.0045 35.5299 12.0045 35.1999C12.0045 34.7599 12.2245 34.2099 12.5545 33.9899C12.7745 33.8799 13.3245 33.9899 13.6545 34.0999C13.9845 34.4299 14.3145 34.8699 14.5345 35.3099C15.1945 36.1899 16.0745 36.2999 16.9545 35.6399C17.9445 34.7599 18.4945 33.5499 18.8245 32.3399C19.4845 29.6999 20.1445 27.1699 20.6945 24.5299V24.0899L14.8645 23.2099L15.0845 21.5599L21.1345 22.4399L21.9045 19.0299L15.6345 18.0399L15.8545 16.2799L22.3445 17.1599C22.5645 16.4999 22.6745 15.9499 22.8945 15.3999C23.4445 13.4199 23.9945 11.4399 25.3145 9.67992C26.6345 7.91992 28.1745 6.81992 30.4845 6.92992C31.4745 6.92992 32.4645 7.25992 33.1245 8.02992C33.2345 8.13992 33.4545 8.35992 33.4545 8.57992C33.4545 9.01992 33.4545 9.56992 33.1245 9.89992C32.6845 10.2299 32.1345 10.1199 31.6945 9.67992C31.3645 9.34992 31.1445 9.01992 30.8145 8.68992C30.1545 7.80992 29.1645 7.69992 28.3945 8.46992C27.8445 9.01992 27.2945 9.78992 26.9645 10.5599C26.1945 12.8699 25.6445 15.2899 24.8745 17.7099L30.9245 18.5899L30.4845 20.2399L24.6545 19.3599Z" fill="white"/>
</g>
<path d="M63.4395 14.4091V20.6978H72.9878V23.7599H63.4395V33.1106H59.9165V11.38H75.6218V14.4091H63.4395Z" fill="#0891B2"/>
<path d="M81.3287 13.8823C80.5824 13.8823 80.0007 13.6957 79.5836 13.3226C79.1666 12.9275 78.9581 12.3787 78.9581 11.6763C78.9581 10.9739 79.1666 10.4361 79.5836 10.063C80.0007 9.68985 80.5824 9.50327 81.3287 9.50327C82.075 9.50327 82.6457 9.68985 83.0408 10.063C83.4578 10.4361 83.6664 10.9739 83.6664 11.6763C83.6664 12.3787 83.4578 12.9275 83.0408 13.3226C82.6457 13.6957 82.075 13.8823 81.3287 13.8823ZM83.0737 33.1106H79.5507V16.648H83.0737V33.1106Z" fill="#0891B2"/>
<path d="M92.0101 28.3035C92.0101 29.1157 92.1308 29.6864 92.3722 30.0157C92.6137 30.323 93.0637 30.4766 93.7222 30.4766C94.1392 30.4766 94.4904 30.4547 94.7758 30.4108C95.0831 30.3449 95.4562 30.2242 95.8952 30.0486L95.5001 32.8801C94.7538 33.2533 93.8429 33.4399 92.7673 33.4399C91.2967 33.4399 90.2102 33.0667 89.5078 32.3204C88.8273 31.5741 88.4871 30.3998 88.4871 28.7974V9.23987H92.0101V28.3035Z" fill="#0891B2"/>
<path d="M113.56 24.3854C113.56 25.022 113.516 25.6256 113.429 26.1963H101.378C101.576 27.645 102.091 28.7535 102.926 29.5218C103.76 30.2681 104.835 30.6412 106.152 30.6412C107.228 30.6412 108.117 30.4547 108.819 30.0815C109.543 29.6864 110.037 29.1267 110.301 28.4023L113.231 29.6206C112.002 32.1668 109.642 33.4399 106.152 33.4399C103.562 33.4399 101.532 32.6826 100.061 31.168C98.6123 29.6535 97.888 27.5572 97.888 24.8793C97.888 22.1795 98.5904 20.0832 99.9952 18.5906C101.4 17.0761 103.376 16.3188 105.922 16.3188C108.336 16.3188 110.213 17.0541 111.552 18.5248C112.891 19.9954 113.56 21.949 113.56 24.3854ZM105.922 19.1174C104.649 19.1174 103.617 19.4906 102.827 20.2369C102.059 20.9832 101.576 22.0697 101.378 23.4965H110.268C110.092 22.1136 109.62 21.0381 108.852 20.2698C108.106 19.5015 107.129 19.1174 105.922 19.1174Z" fill="#0891B2"/>
<path d="M125.218 16.3188C128.817 16.3188 131.199 17.8553 132.362 20.9283L129.07 22.2453C128.499 20.16 127.215 19.1174 125.218 19.1174C123.747 19.1174 122.606 19.6223 121.793 20.632C120.981 21.6417 120.575 23.0684 120.575 24.9122C120.575 26.7561 120.981 28.1718 121.793 29.1596C122.606 30.1474 123.747 30.6412 125.218 30.6412C126.337 30.6412 127.237 30.3669 127.918 29.8181C128.598 29.2693 129.048 28.4791 129.267 27.4475L132.494 28.534C132.011 30.0705 131.155 31.2778 129.926 32.1558C128.697 33.0118 127.149 33.4399 125.284 33.4399C122.693 33.4399 120.663 32.6826 119.192 31.168C117.744 29.6535 117.019 27.5572 117.019 24.8793C117.019 22.2014 117.744 20.1052 119.192 18.5906C120.641 17.0761 122.65 16.3188 125.218 16.3188Z" fill="#0891B2"/>
<path d="M143.867 16.3188C146.435 16.3188 148.443 17.0761 149.892 18.5906C151.341 20.1052 152.065 22.2014 152.065 24.8793C152.065 27.5572 151.341 29.6535 149.892 31.168C148.443 32.6826 146.435 33.4399 143.867 33.4399C141.299 33.4399 139.29 32.6826 137.841 31.168C136.393 29.6535 135.668 27.5572 135.668 24.8793C135.668 22.2014 136.393 20.1052 137.841 18.5906C139.29 17.0761 141.299 16.3188 143.867 16.3188ZM143.867 19.0845C142.374 19.0845 141.222 19.5893 140.41 20.5991C139.619 21.5868 139.224 23.0136 139.224 24.8793C139.224 26.7451 139.619 28.1828 140.41 29.1925C141.222 30.1803 142.374 30.6742 143.867 30.6742C145.359 30.6742 146.512 30.1693 147.324 29.1596C148.136 28.1499 148.542 26.7231 148.542 24.8793C148.542 23.0355 148.136 21.6088 147.324 20.5991C146.512 19.5893 145.359 19.0845 143.867 19.0845Z" fill="#0891B2"/>
<path d="M158.368 13.8823C157.622 13.8823 157.04 13.6957 156.623 13.3226C156.206 12.9275 155.998 12.3787 155.998 11.6763C155.998 10.9739 156.206 10.4361 156.623 10.063C157.04 9.68985 157.622 9.50327 158.368 9.50327C159.115 9.50327 159.685 9.68985 160.081 10.063C160.498 10.4361 160.706 10.9739 160.706 11.6763C160.706 12.3787 160.498 12.9275 160.081 13.3226C159.685 13.6957 159.115 13.8823 158.368 13.8823ZM160.113 33.1106H156.59V16.648H160.113V33.1106Z" fill="#0891B2"/>
<path d="M174.482 16.3188C176.304 16.3188 177.786 16.8456 178.927 17.8992C180.091 18.9528 180.672 20.4674 180.672 22.4429V33.1106H177.149V23.5623C177.149 20.6649 175.975 19.2162 173.626 19.2162C172.397 19.2162 171.344 19.6442 170.466 20.5003C169.588 21.3344 169.149 22.6294 169.149 24.3854V33.1106H165.626V16.648H168.754L168.918 19.3808C169.467 18.3492 170.224 17.5809 171.19 17.0761C172.156 16.5712 173.253 16.3188 174.482 16.3188Z" fill="#0891B2"/>
</svg>
