<svg width="161" height="44" viewBox="0 0 161 44" fill="none" xmlns="http://www.w3.org/2000/svg">
<path fill-rule="evenodd" clip-rule="evenodd" d="M16.6347 14.3397L16.6746 14.4507C16.8484 14.9564 17.1707 15.398 17.5993 15.7177C18.028 16.0374 18.5431 16.2205 19.0774 16.2429C19.6117 16.2654 20.1403 16.1262 20.5943 15.8435C21.0482 15.5608 21.4064 15.1479 21.622 14.6585L26.4613 3.73604C26.6779 3.24461 26.7409 2.69912 26.6418 2.17125C26.5428 1.64338 26.2863 1.15783 25.9062 0.778409C25.6015 0.474153 25.2276 0.248339 24.8166 0.12034C24.4055 -0.00765855 23.9695 -0.0340207 23.546 0.0435152C23.1225 0.121051 22.7241 0.30017 22.385 0.565507C22.046 0.830843 21.7763 1.17447 21.5992 1.56692L16.7258 12.3841C16.4475 13.0006 16.415 13.7 16.6347 14.3397ZM24.7618 11.9716C24.8991 11.6608 25.0992 11.3818 25.3496 11.1521C25.5999 10.9223 25.895 10.7468 26.2164 10.6365L32.254 8.56703C32.6908 8.417 33.161 8.39269 33.611 8.49687C34.0609 8.60105 34.4725 8.82954 34.7989 9.15628L34.8786 9.23599C35.1776 9.53424 35.3949 9.90428 35.5098 10.3106C35.6246 10.717 35.6332 11.146 35.5346 11.5567C35.436 11.9673 35.2336 12.3457 34.9468 12.6556C34.6599 12.9655 34.2983 13.1966 33.8965 13.3266L27.782 15.3192C27.3285 15.4669 26.8418 15.4801 26.3809 15.357C25.9201 15.2339 25.5048 14.9799 25.1852 14.6258C24.8657 14.2716 24.6556 13.8324 24.5805 13.3614C24.5053 12.8903 24.5683 12.4076 24.7618 11.9716ZM29.9169 16.2298L30.0279 16.1928C30.6685 15.9722 31.3691 16.0048 31.9864 16.2839L42.8035 21.1601C43.1963 21.337 43.5401 21.6066 43.8056 21.9458C44.071 22.2849 44.2501 22.6835 44.3274 23.1073C44.4047 23.531 44.3779 23.9671 44.2493 24.3782C44.1207 24.7892 43.8942 25.1629 43.5892 25.467C43.2096 25.8469 42.7237 26.1028 42.1957 26.2009C41.6676 26.2989 41.1223 26.2346 40.6316 26.0164L29.7091 21.1772C29.2209 20.9605 28.8092 20.602 28.5276 20.1482C28.2459 19.6944 28.1072 19.1664 28.1296 18.6328C28.152 18.0992 28.3345 17.5846 28.6532 17.1561C28.972 16.7275 29.4123 16.4048 29.9169 16.2298ZM32.4619 24.3968C32.7727 24.5346 33.0519 24.7348 33.282 24.9851C33.5122 25.2353 33.6884 25.5302 33.7998 25.8515L35.8693 31.8806C36.0186 32.3175 36.0426 32.7875 35.9385 33.2373C35.8343 33.6871 35.6062 34.0987 35.28 34.4255L35.2003 34.5052C34.9022 34.8021 34.5331 35.0179 34.1282 35.1321C33.7232 35.2462 33.2957 35.2549 32.8864 35.1574C32.4771 35.0598 32.0996 34.8593 31.7896 34.5747C31.4796 34.2902 31.2476 33.9311 31.1154 33.5316L29.1228 27.4171C28.9763 26.9645 28.9638 26.4793 29.0866 26.0197C29.2095 25.5602 29.4626 25.1459 29.8153 24.8268C30.1681 24.5077 30.6056 24.2974 31.0751 24.2211C31.5447 24.1448 32.0262 24.2058 32.4619 24.3968ZM28.0866 29.5494L28.1236 29.6575C28.3459 30.2974 28.3154 30.998 28.0382 31.616L23.162 42.4332C22.9849 42.8256 22.7153 43.1692 22.3762 43.4346C22.0371 43.6999 21.6387 43.879 21.2152 43.9566C20.7917 44.0341 20.3557 44.0077 19.9446 43.8797C19.5336 43.7518 19.1597 43.5259 18.855 43.2217C18.4753 42.8414 18.2195 42.355 18.1215 41.8266C18.0234 41.2982 18.0876 40.7524 18.3056 40.2612L23.1449 29.3387C23.3627 28.8525 23.7215 28.4428 24.1747 28.1627C24.628 27.8827 25.1549 27.7451 25.6872 27.7677C26.2195 27.7904 26.7328 27.9724 27.1606 28.29C27.5883 28.6076 27.9109 29.0464 28.0866 29.5494ZM19.9197 32.0854C19.7822 32.3965 19.5817 32.6758 19.3308 32.9056C19.08 33.1353 18.7842 33.3107 18.4623 33.4204L12.4274 35.4899C11.9882 35.6428 11.5148 35.6685 11.0616 35.5643C10.6084 35.4601 10.1938 35.23 9.86548 34.9007L9.78862 34.821C9.49259 34.5218 9.2781 34.1517 9.16559 33.7461C9.05308 33.3405 9.04631 32.9128 9.14591 32.5039C9.24551 32.0949 9.44817 31.7183 9.73458 31.4098C10.021 31.1014 10.3816 30.8714 10.7821 30.7418L16.8966 28.7491C17.3489 28.6036 17.8336 28.5916 18.2925 28.7146C18.7515 28.8375 19.1652 29.0901 19.4843 29.4422C19.8033 29.7943 20.0141 30.2308 20.0913 30.6996C20.1685 31.1684 20.109 31.6496 19.9197 32.0854ZM14.8242 27.787L14.7132 27.824C14.0739 28.0447 13.3745 28.0131 12.7576 27.7358L1.94046 22.8624C1.54801 22.6853 1.20438 22.4157 0.939042 22.0766C0.673706 21.7375 0.494586 21.3391 0.41705 20.9156C0.339514 20.4921 0.365877 20.0561 0.493875 19.6451C0.621874 19.234 0.847688 18.8601 1.15194 18.5554C1.53072 18.1743 2.01631 17.9171 2.54445 17.818C3.07259 17.7189 3.61837 17.7825 4.10958 18.0004L15.032 22.8396C15.5214 23.0552 15.9344 23.4134 16.217 23.8673C16.4997 24.3213 16.6389 24.8499 16.6164 25.3842C16.594 25.9185 16.411 26.4336 16.0912 26.8623C15.7715 27.2909 15.33 27.6132 14.8242 27.787ZM12.2309 19.7053C11.922 19.5665 11.6449 19.3658 11.4167 19.1156C11.1885 18.8654 11.0142 18.571 10.9044 18.2507L8.82635 12.2159C8.67386 11.7766 8.64826 11.3033 8.75248 10.8501C8.8567 10.397 9.08653 9.9824 9.4156 9.6539L9.4953 9.5742C9.7942 9.27611 10.1645 9.05958 10.5708 8.94524C10.9772 8.8309 11.406 8.82258 11.8165 8.92106C12.227 9.01954 12.6054 9.22154 12.9157 9.5078C13.2259 9.79406 13.4576 10.155 13.5887 10.5563L15.5814 16.6708C15.7334 17.1255 15.7497 17.6147 15.6282 18.0785C15.5068 18.5423 15.2528 18.9607 14.8974 19.2826C14.5421 19.6045 14.1006 19.8158 13.6271 19.8909C13.1536 19.966 12.6684 19.9015 12.2309 19.7053ZM98.4151 20.6591C98.5973 20.4329 98.7922 20.2171 98.9987 20.0129C99.7017 19.2939 100.544 18.7257 101.474 18.3429C102.404 17.9602 103.402 17.771 104.407 17.7868C104.693 17.79 104.978 17.8109 105.261 17.8495V21.2028C104.98 21.1472 104.694 21.1186 104.407 21.1174C103.838 21.1081 103.272 21.2151 102.746 21.4319C102.219 21.6488 101.742 21.9708 101.344 22.3784C100.938 22.7687 100.617 23.2381 100.399 23.7576C100.182 24.2771 100.073 24.8356 100.08 25.3987V33.0362H96.7499V25.3987C96.7444 24.6572 96.5481 23.9297 96.1801 23.286C95.812 22.6423 95.2846 22.1041 94.6484 21.7232C94.0122 21.3424 93.2887 21.1316 92.5475 21.1113C91.8063 21.0909 91.0723 21.2616 90.4161 21.607V33.0362H87.0856V17.7214H90.4161V18.0715C91.7131 17.7051 93.0843 17.6919 94.388 18.0332C95.6917 18.3745 96.8806 19.058 97.8316 20.0129C98.0373 20.2179 98.2321 20.4336 98.4151 20.6591ZM54.9843 10.9293H58.3148L58.3063 29.7056H68.2695V33.0362H56.6496C56.2113 33.0253 55.794 32.8464 55.484 32.5364C55.1741 32.2264 54.9951 31.8091 54.9843 31.3709V10.9293ZM80.7547 17.6701H84.0796L84.0767 25.2564V25.3958V33.0333H80.7462V25.3958C80.7532 24.8328 80.6446 24.2742 80.4272 23.7547C80.2098 23.2353 79.8882 22.7659 79.4823 22.3756C78.6742 21.5683 77.5787 21.1149 76.4364 21.1149C75.2942 21.1149 74.1986 21.5683 73.3905 22.3756C72.9835 22.7646 72.6609 23.2333 72.443 23.7524C72.225 24.2715 72.1164 24.83 72.1238 25.393C72.1236 26.2507 72.3782 27.089 72.8554 27.8017C73.3326 28.5143 74.0108 29.0691 74.804 29.3955C75.5971 29.7219 76.4693 29.8052 77.3099 29.6349C78.1505 29.4646 78.9215 29.0483 79.525 28.4389L79.5563 32.3729C78.5819 32.8085 77.5265 33.0336 76.4592 33.0333C75.4537 33.0492 74.4556 32.8599 73.5257 32.4772C72.5958 32.0945 71.7536 31.5263 71.0506 30.8073C70.3379 30.1004 69.7722 29.2595 69.3861 28.3329C69.0001 27.4063 68.8013 26.4124 68.8013 25.4087C68.8013 24.4049 69.0001 23.411 69.3861 22.4844C69.7722 21.5578 70.3379 20.7169 71.0506 20.01C71.7536 19.291 72.5958 18.7228 73.5257 18.3401C74.4556 17.9574 75.4537 17.7682 76.4592 17.784C77.9928 17.7599 79.4953 18.2179 80.7547 19.0934V17.6701ZM116.548 18.4529C117.52 18.01 118.577 17.7827 119.645 17.7868C120.651 17.771 121.649 17.9602 122.579 18.3429C123.509 18.7257 124.351 19.2939 125.054 20.0129C125.779 20.7071 126.353 21.5435 126.74 22.4697C127.127 23.396 127.318 24.3921 127.303 25.3958C127.304 26.7849 126.928 28.1481 126.214 29.3397C125.5 30.5312 124.476 31.5062 123.25 32.1601C122.025 32.8141 120.645 33.1224 119.257 33.0521C117.87 32.9818 116.528 32.5354 115.375 31.7609V33.0789H112.05V26.2328C112.025 25.9481 112.008 25.6634 112.008 25.3788V10.9293H115.338V17.3912H115.375V25.9481C115.485 27.0602 116.022 28.0861 116.874 28.8095C117.726 29.5329 118.825 29.8973 119.94 29.8256C121.056 29.754 122.099 29.252 122.852 28.4256C123.604 27.5991 124.005 26.5128 123.972 25.3958C123.979 24.8331 123.871 24.2749 123.653 23.7559C123.436 23.2368 123.114 22.768 122.708 22.3784C122.311 21.9704 121.834 21.6481 121.307 21.4312C120.78 21.2144 120.215 21.1076 119.645 21.1174C119.068 21.1105 118.495 21.2222 117.962 21.4454C117.429 21.6687 116.948 21.9988 116.548 22.4154V18.4529ZM160.722 17.3912V25.2507C160.722 25.2588 160.723 25.2668 160.723 25.2749C160.726 25.3152 160.729 25.3555 160.722 25.3958V33.0504V33.0846H157.389V25.3987C157.396 24.836 157.287 24.2778 157.07 23.7587C156.852 23.2397 156.531 22.7708 156.125 22.3813C155.316 21.5738 154.22 21.1203 153.077 21.1203C151.935 21.1203 150.839 21.5738 150.03 22.3813C149.624 22.7708 149.302 23.2397 149.085 23.7587C148.867 24.2778 148.759 24.836 148.766 25.3987C148.764 26.257 149.018 27.0963 149.495 27.8098C149.972 28.5234 150.651 29.0788 151.445 29.4055C152.238 29.7321 153.111 29.8151 153.952 29.644C154.793 29.4729 155.564 29.0554 156.167 28.4446L156.201 32.3786C155.227 32.814 154.172 33.039 153.104 33.039C152.099 33.0549 151.101 32.8656 150.171 32.4829C149.241 32.1002 148.399 31.532 147.696 30.813C146.984 30.1055 146.419 29.2644 146.034 28.3379C145.648 27.4114 145.45 26.4178 145.45 25.4143C145.45 24.4109 145.648 23.4173 146.034 22.4908C146.419 21.5643 146.984 20.7232 147.696 20.0157C148.399 19.2975 149.242 18.7299 150.171 18.3472C151.101 17.9645 152.099 17.7748 153.104 17.7897C154.638 17.766 156.14 18.224 157.4 19.0991V17.3912H160.722ZM140.121 25.6179V17.3912V10.9607H143.443V25.4129C143.443 25.4713 143.439 25.5289 143.436 25.5866C143.432 25.6442 143.429 25.7019 143.429 25.7602V33.0703H140.104V31.7466C138.954 32.5287 137.613 32.9822 136.224 33.0584C134.836 33.1346 133.453 32.8305 132.224 32.1789C130.996 31.5273 129.968 30.5529 129.252 29.3607C128.537 28.1684 128.16 26.8035 128.162 25.4129C128.16 24.1421 128.477 22.8911 129.082 21.7738C129.688 20.6566 130.563 19.7088 131.629 19.0168C132.695 18.3248 133.917 17.9107 135.184 17.8122C136.451 17.7137 137.723 17.934 138.883 18.4529V22.4041C138.483 21.9961 138.006 21.6714 137.48 21.4486C136.954 21.2259 136.389 21.1096 135.818 21.1064C135.247 21.1033 134.681 21.2133 134.153 21.4301C133.624 21.647 133.144 21.9664 132.74 22.3699C131.939 23.1821 131.49 24.2768 131.49 25.4172C131.49 26.5576 131.939 27.6523 132.74 28.4645C133.33 29.0619 134.082 29.4741 134.903 29.6506C135.724 29.827 136.579 29.7601 137.362 29.4579C138.146 29.1557 138.824 28.6314 139.314 27.9493C139.804 27.2672 140.085 26.457 140.121 25.6179ZM106.414 21.607V18.0715V17.7214H109.745V33.0362H106.414V21.607Z" fill="#0891B2"/>
</svg>
