<svg width="102" height="44" viewBox="0 0 102 44" fill="none" xmlns="http://www.w3.org/2000/svg">
<path fill-rule="evenodd" clip-rule="evenodd" d="M96.9098 29.0868V22.4924C96.9098 18.7909 93.9491 15.7138 90.2478 15.6956C86.5294 15.6772 83.5002 18.7062 83.5186 22.4248C83.537 26.1261 86.6139 29.0868 90.3154 29.0868H96.9098ZM90.2141 11.2318C96.3773 11.2318 101.373 16.2279 101.373 22.3911V33.5505H90.2141C84.0509 33.5505 79.0548 28.5543 79.0548 22.3911C79.0548 16.2279 84.0509 11.2318 90.2141 11.2318Z" fill="#0891B2"/>
<path fill-rule="evenodd" clip-rule="evenodd" d="M72.3594 33.5503H76.823V11.2314H72.3594V33.5503Z" fill="#0891B2"/>
<path fill-rule="evenodd" clip-rule="evenodd" d="M76.823 6.76815C76.823 8.00081 75.8238 9.00005 74.5911 9.00005C73.3586 9.00005 72.3594 8.00081 72.3594 6.76815C72.3594 5.53549 73.3586 4.53625 74.5911 4.53625C75.8238 4.53625 76.823 5.53549 76.823 6.76815Z" fill="#0891B2"/>
<path fill-rule="evenodd" clip-rule="evenodd" d="M55.3984 26.6338C56.2068 27.5444 57.1996 28.2957 58.3758 28.8879C59.5523 29.4804 60.6882 29.7801 61.7845 29.7881C62.9648 29.7971 63.9364 29.52 64.6989 28.9566C65.4616 28.3934 65.8453 27.7912 65.8496 27.1491C65.8544 26.4784 65.6262 25.937 65.1654 25.5247C64.7045 25.1132 64.0526 24.8314 63.2108 24.6789L60.7268 24.1791C57.976 23.6335 56.0704 22.8832 55.0091 21.9267C53.9472 20.9712 53.4225 19.6907 53.4337 18.0861C53.4468 16.1902 54.1811 14.5689 55.6382 13.2233C57.0945 11.8776 59.0455 11.2136 61.4906 11.2318C62.9238 11.2424 64.285 11.4865 65.5747 11.9624C66.8638 12.4388 68.1938 13.1926 69.5641 14.2236L68.2803 15.8486L67.0549 17.3995C66.0769 16.517 65.1262 15.8973 64.2011 15.5405C63.276 15.1835 62.4061 15.0019 61.5913 14.9958C60.5794 14.9884 59.699 15.2227 58.9514 15.6985C58.2032 16.1743 57.8267 16.821 57.821 17.6373C57.813 18.8044 58.6931 19.5549 60.4612 19.8886L64.8816 20.7967C68.4736 21.5236 70.2596 23.4183 70.2385 26.4816C70.2329 27.2985 70.0587 28.1211 69.7155 28.9499C69.3725 29.7789 68.8471 30.5482 68.14 31.2576C67.4322 31.9677 66.522 32.5298 65.4091 32.9438C64.2959 33.3583 63.0089 33.5608 61.5479 33.5497C58.2314 33.5251 55.1763 32.263 52.3837 29.7622L55.3984 26.6338Z" fill="#0891B2"/>
<path fill-rule="evenodd" clip-rule="evenodd" d="M44.3605 21.9999C44.3605 33.978 34.6506 43.6879 22.6725 43.6879C10.6944 43.6879 0.984436 33.978 0.984436 21.9999C0.984436 10.0218 10.6944 0.31189 22.6725 0.31189C34.6506 0.31189 44.3605 10.0218 44.3605 21.9999Z" fill="white"/>
<path fill-rule="evenodd" clip-rule="evenodd" d="M22.4203 0.00142601C18.0256 0.0509994 13.9367 1.39667 10.5173 3.67191L11.3222 4.69124C14.6449 2.50488 18.6308 1.24765 22.9077 1.29547C33.9478 1.41881 43.0113 10.2836 43.3674 21.3186C43.7532 33.2734 33.9456 43.081 21.9908 42.695C10.956 42.3387 2.0913 33.275 1.96795 22.2351C1.92028 17.9581 3.17751 13.9725 5.36358 10.6497L4.34439 9.84482C2.069 13.2642 0.723482 17.3531 0.673908 21.7479C0.538242 33.7716 10.1206 43.7227 22.1656 43.9943C34.7082 44.2772 44.9498 34.0356 44.6669 21.493C44.395 9.44794 34.4439 -0.134387 22.4203 0.00142601Z" fill="#0891B2"/>
<path fill-rule="evenodd" clip-rule="evenodd" d="M9.73137 6.902C9.73137 8.09323 8.76571 9.05888 7.57448 9.05888C6.38326 9.05888 5.4176 8.09323 5.4176 6.902C5.4176 5.71077 6.38326 4.74512 7.57448 4.74512C8.76571 4.74512 9.73137 5.71077 9.73137 6.902Z" fill="#0891B2"/>
<path fill-rule="evenodd" clip-rule="evenodd" d="M29.143 22.0003V28.471H22.6725C19.0988 28.471 16.2018 25.5739 16.2018 22.0003C16.2018 18.4267 19.0988 15.5297 22.6725 15.5297C26.246 15.5297 29.143 18.4267 29.143 22.0003ZM22.754 11.2164C16.7606 11.1719 11.8881 16.0171 11.8881 22.0003C11.8881 27.9563 16.7163 32.7846 22.6725 32.7846H33.4567V22.1357C33.4567 16.1893 28.7003 11.2604 22.754 11.2164Z" fill="#0891B2"/>
</svg>
