<svg width="111" height="44" viewBox="0 0 111 44" fill="none" xmlns="http://www.w3.org/2000/svg">
<g clip-path="url(#clip0)">
<path fill-rule="evenodd" clip-rule="evenodd" d="M16.0436 28.1753L16.0095 28.1755C14.8859 28.1755 13.8336 27.862 12.9429 27.3184C10.4425 28.7684 8.56256 29.8521 7.30319 30.5695C7.04683 30.7152 6.96092 30.8806 6.96348 31.173C6.97964 32.8095 5.73548 34.1212 4.10058 34.1335C2.23632 34.1474 1.08359 32.586 1.1561 31.0616C1.21876 29.7602 2.33347 28.2622 4.1664 28.3092C4.71734 28.3239 5.2208 28.5136 5.69351 28.7991C5.794 28.8598 5.98613 28.8714 6.08504 28.8153C6.30645 28.6892 6.52774 28.563 6.74893 28.4364L6.75178 28.4561L11.3098 25.8245C10.6328 24.9053 10.233 23.7775 10.233 22.5535C10.233 20.97 10.9024 19.5468 11.9761 18.5285L8.06356 16.2655L8.03986 16.3067C7.41263 15.9439 6.78591 15.5802 6.16012 15.215C5.95696 15.0965 5.81982 15.1064 5.62158 15.2324C3.86472 16.3492 1.53601 15.3158 1.18881 13.274C0.916494 11.6752 1.96399 10.1816 3.61367 9.90996C5.29528 9.63355 6.6884 10.8257 6.91441 12.251C6.92031 12.2882 6.92745 12.3257 6.93462 12.3634C6.95763 12.4842 6.9809 12.6065 6.96407 12.7223C6.9089 13.1036 7.06851 13.305 7.39935 13.4927C8.6696 14.2142 9.93536 14.9435 11.2011 15.6729C12.1335 16.2102 13.0659 16.7475 14.0001 17.2816C14.2371 17.1959 14.4812 17.125 14.7315 17.07C15.7087 15.6438 17.2503 14.6598 18.9992 14.3696V8.76688H18.9567C18.9578 8.02816 18.9596 7.28943 18.9619 6.55066C18.9627 6.30776 18.8394 6.22279 18.6624 6.12618C17.5105 5.49628 17.033 4.37447 17.1289 3.36465C17.2536 2.05595 17.9629 1.15673 19.2352 0.768926C20.6331 0.342877 22.1235 1.0619 22.707 2.40786C23.2855 3.7422 22.8049 5.30701 21.5404 6.03391C21.1878 6.23659 21.0999 6.45484 21.1018 6.83141C21.1128 8.86543 21.1117 10.8996 21.1106 12.9337C21.1103 13.4094 21.1101 13.8851 21.11 14.3608C23.0828 14.6713 24.7638 15.8592 25.7058 17.5103L31.0516 14.4124L31.0512 14.4116C31.6352 14.0757 32.2196 13.7404 32.8042 13.4057C33.0309 13.276 33.1014 13.1311 33.099 12.877C33.0823 11.3851 33.994 10.2502 35.4453 9.92869C37.0992 9.56238 38.7549 10.825 38.8962 12.5139C39.026 14.0709 37.9702 15.3898 36.5135 15.6453C35.7651 15.7765 35.0518 15.6412 34.4155 15.214C34.237 15.0941 34.1136 15.0959 33.9318 15.2009L33.2364 15.6043L29.0424 18.0258C28.4113 18.3888 27.78 18.7512 27.1484 19.1131C27.116 19.1317 27.0873 19.1503 27.0623 19.1691L27.0439 19.1798C28.4837 20.0217 29.4541 21.562 29.4541 23.3367C29.4541 24.2309 29.2068 25.0681 28.7757 25.7864L29.2947 26.0865C29.329 26.1342 29.3831 26.1774 29.461 26.2216C30.9546 27.0723 32.4421 27.934 33.9261 28.8014C34.1232 28.917 34.2569 28.8858 34.4418 28.7718C36.1954 27.6879 38.3666 28.5928 38.8443 30.5982C39.243 32.2717 38.0254 33.9267 36.3069 34.1094C34.5566 34.2961 33.0553 32.8888 33.1006 31.1661C33.1081 30.8688 33.0102 30.7099 32.7564 30.5662L32.3478 30.3337L32.3679 30.3181L27.2619 27.3588C26.6116 27.7857 25.8519 28.0653 25.0324 28.1491C24.9237 28.1665 24.8132 28.1755 24.702 28.1755H21.1511V28.6266C21.1209 28.675 21.1056 28.7409 21.1056 28.8334C21.1122 31.7118 21.1117 34.5909 21.1056 37.4699C21.1049 37.6757 21.1973 37.7694 21.3649 37.8549C22.5992 38.4898 23.0609 39.7574 22.9325 40.7178C22.743 42.1338 21.8579 43.0542 20.5105 43.3175C18.981 43.6168 17.3962 42.4512 17.1577 40.9077C16.9522 39.5791 17.7056 38.3368 18.7037 37.8553C18.8943 37.764 18.9601 37.645 18.9599 37.4357C18.9546 34.4717 18.954 31.5084 18.9605 28.5442C18.9605 28.5062 18.9603 28.3833 18.9597 28.1755H16.0523L16.0436 28.1753ZM37.4824 16.365C37.4817 16.122 37.5557 15.9924 37.7687 15.865C38.9228 15.1726 39.5209 14.1452 39.5561 12.7668C39.5509 12.7047 39.5477 12.6399 39.5445 12.5733C39.5369 12.4185 39.5289 12.2547 39.4944 12.0966C38.9709 9.66806 36.3633 8.49184 34.2127 9.71912C33.9862 9.84766 33.8281 9.84253 33.6106 9.71596C30.4444 7.87967 27.2761 6.04653 24.0989 4.22759C23.7549 4.03084 23.5921 3.84335 23.5921 3.40112C23.5921 3.25909 23.5758 3.17229 23.5589 3.08223C23.5518 3.04428 23.5445 3.00575 23.5384 2.96226C23.3091 1.36728 21.7976 0.0331483 20.1822 0.000815127C18.1096 -0.0411786 16.474 1.54434 16.4686 3.61544C16.4681 3.84886 16.3908 3.97957 16.1928 4.09353C12.9185 5.97675 9.64667 7.86429 6.37746 9.75716C6.20761 9.85515 6.08366 9.8585 5.91676 9.75164C5.19833 9.29267 4.39753 9.14126 3.56717 9.25935C2.01799 9.48016 0.827625 10.6101 0.566735 12.1502C0.30407 13.7006 0.94743 15.0815 2.31494 15.8763C2.52165 15.9963 2.58036 16.13 2.58017 16.3559C2.57425 20.1163 2.57267 23.8763 2.58253 27.6373C2.58292 27.9004 2.48558 28.0284 2.27041 28.1556C0.908217 28.9576 0.288701 30.3815 0.575405 31.9042C1.0298 34.3148 3.76048 35.5518 5.90297 34.2614C6.08209 34.153 6.22159 34.1538 6.39914 34.2572C9.67801 36.154 12.9583 38.0481 16.2412 39.9376C16.4121 40.0367 16.4653 40.1543 16.47 40.3466C16.4764 40.6302 16.4971 40.9201 16.5584 41.1973C16.9597 43.0002 18.6014 44.1677 20.4585 43.9803C22.2019 43.8048 23.5976 42.2303 23.5943 40.4211C23.5937 40.1624 23.6767 40.0224 23.8981 39.8949C27.1364 38.0344 30.3709 36.1667 33.6019 34.2941C33.8175 34.17 33.9794 34.1451 34.2094 34.2859C34.9638 34.7489 35.7974 34.8797 36.6581 34.7155C38.1427 34.4333 39.2887 33.255 39.5186 31.8205C39.7585 30.3235 39.0828 28.8994 37.7476 28.1274C37.5404 28.008 37.4829 27.8719 37.4833 27.6459C37.489 23.8862 37.4897 20.1255 37.4824 16.365ZM36.0031 30.402C35.5322 30.4009 35.1884 30.7487 35.1884 31.2277C35.1886 31.6955 35.5497 32.0619 36.0099 32.0619C36.4396 32.0612 36.8524 31.6486 36.8475 31.2219C36.843 30.7786 36.4565 30.4043 36.0031 30.402ZM20.0335 2.74125C19.5664 2.74165 19.205 3.09948 19.2033 3.56318C19.2019 4.00461 19.5895 4.39458 20.035 4.39892C20.4733 4.40444 20.8628 4.00974 20.8616 3.56339C20.8598 3.0979 20.5012 2.74086 20.0335 2.74125ZM4.0521 32.0619C4.50984 32.0657 4.87419 31.6985 4.87596 31.231C4.87774 30.7519 4.53567 30.4023 4.0653 30.402C3.61131 30.402 3.21564 30.7833 3.21781 31.2185C3.21978 31.6542 3.61959 32.0579 4.0521 32.0619ZM20.8614 40.4495C20.8636 39.9873 20.5091 39.6323 20.0425 39.6291C19.5741 39.6255 19.2086 39.9748 19.2033 40.4329C19.1981 40.8937 19.5568 41.2513 20.0258 41.2536C20.4987 41.2566 20.8584 40.9098 20.8614 40.4495ZM3.218 12.7969C3.232 13.2541 3.60165 13.5989 4.07457 13.5947C4.5532 13.5904 4.88325 13.2503 4.87596 12.7679C4.86907 12.2878 4.53093 11.9633 4.04423 11.9706C3.57801 11.9773 3.20401 12.3513 3.218 12.7969ZM35.1884 12.7694C35.1837 13.2519 35.5148 13.5926 35.9929 13.596C36.4627 13.5993 36.8348 13.2501 36.8459 12.7963C36.8569 12.3483 36.4855 11.9777 36.0189 11.9712C35.5322 11.9649 35.1931 12.2906 35.1884 12.7694ZM12.24 22.5535C12.24 24.55 13.9277 26.1684 16.0095 26.1684C16.022 26.1684 16.0345 26.1684 16.0471 26.1682C16.0488 26.1684 16.0505 26.1684 16.0523 26.1684H24.702C24.7142 26.1684 24.7258 26.1656 24.736 26.1605C26.2521 26.0515 27.4471 24.8289 27.4471 23.3367C27.4471 21.7729 26.1345 20.5051 24.5153 20.5051H24.5076C24.4743 18.1704 22.505 16.2877 20.0805 16.2877C18.2313 16.2877 16.6468 17.383 15.9842 18.9387C13.9141 18.9518 12.24 20.5652 12.24 22.5535ZM102.79 18.1596H107.186V23.7926C107.186 25.3418 106.498 26.0113 105.39 26.0113C104.454 26.0113 103.709 25.514 102.945 24.6724L101.092 26.738C102.009 27.8283 103.385 28.7463 105.467 28.7463C108.294 28.7463 110.205 27.1779 110.205 23.9265V15.1668H107.186H102.79V18.1596ZM52.6729 28.7463C55.5583 28.7463 57.5839 27.2558 57.5839 24.5997V24.5615C57.5839 22.2303 56.0552 21.2557 53.3417 20.5487C51.0294 19.9564 50.4561 19.6697 50.4561 18.7907V18.7525C50.4561 18.1028 51.0485 17.5869 52.176 17.5869C53.3035 17.5869 54.4692 18.0837 55.6539 18.9054L57.1827 16.6888C55.8259 15.5996 54.1634 14.9881 52.2142 14.9881C49.4816 14.9881 47.5324 16.5932 47.5324 19.02V19.0582C47.5324 21.7143 49.2714 22.4595 51.9658 23.1474C54.2016 23.7207 54.6602 24.1029 54.6602 24.8482V24.8864C54.6602 25.6698 53.9341 26.1476 52.7302 26.1476C51.2014 26.1476 49.9402 25.517 48.7363 24.5233L46.9973 26.6061C48.6026 28.0393 50.6473 28.7463 52.6729 28.7463ZM66.0231 17.8852H70.0914V15.1668H59.0134V17.8852H63.0817V28.5676H66.0231V17.8852ZM78.4031 28.791C82.5401 28.791 85.5471 25.6733 85.5471 21.8672V21.8289C85.5471 18.0228 82.5784 14.9435 78.4414 14.9435C74.3045 14.9435 71.2976 18.061 71.2976 21.8672V21.9054C71.2976 25.7117 74.2662 28.791 78.4031 28.791ZM82.4649 21.8672V21.9053C82.4649 24.1957 80.8172 26.0661 78.4414 26.0661C76.0658 26.0661 74.3797 24.1575 74.3797 21.8672V21.829C74.3797 19.5387 76.0274 17.6682 78.4031 17.6682C80.7789 17.6682 82.4649 19.5769 82.4649 21.8672ZM96.1758 28.5676H99.618L96.3479 23.7816C98.0499 23.1499 99.2164 21.7906 99.2164 19.6273V19.589C99.2164 16.8323 97.3232 15.1668 94.1679 15.1668H88.0486V28.5676H90.9935V24.2794H93.3074L96.1758 28.5676ZM96.2231 19.7581V19.7964C96.2231 20.924 95.4029 21.6886 93.9724 21.6886H90.9968V17.8469H93.9151C95.3457 17.8469 96.2231 18.4967 96.2231 19.7581Z" fill="#0891B2"/>
</g>
<defs>
<clipPath id="clip0">
<rect width="110" height="44" fill="white" transform="translate(0.726318)"/>
</clipPath>
</defs>
</svg>
