<svg width="181" height="40" viewBox="0 0 181 40" fill="none" xmlns="http://www.w3.org/2000/svg">
<path d="M54.7249 25.2441C54.4882 25.2293 53.9335 25.1997 53.7633 25.2885L49.9616 29.3935C49.5696 29.8668 49 30.1627 48.3787 30.1997C48.3344 30.1997 48.2826 30.2071 48.2382 30.2071C47.6539 30.2071 47.0918 29.9778 46.6702 29.5636L46.5888 29.4674L43.3048 25.3846L38.5045 29.3787C37.5504 30.0443 36.2708 29.8743 35.5237 28.9867L32.358 25.2145L28.7042 28.8092C28.253 29.253 27.6317 29.4822 27.003 29.4379C26.3891 29.4009 25.8196 29.105 25.435 28.6316L21.8773 24.8446L16.6628 29.1346C16.182 29.5266 15.4793 29.46 15.0873 28.9793C14.6953 28.4985 14.7619 27.7958 15.2427 27.4038L20.5607 23.0399C21.5223 22.3298 22.8462 22.4926 23.6006 23.4097L27.1657 27.2041L30.8196 23.6094C31.2634 23.1731 31.8699 22.9438 32.4838 22.9734C33.1051 23.003 33.682 23.2914 34.0814 23.7648L37.2397 27.5222L42.0474 23.5281C42.9276 22.9142 44.1258 23.0178 44.8876 23.7722L44.969 23.8683L48.2604 27.9586L48.2974 27.892L52.2619 23.6243C53.0607 22.9068 54.185 22.966 54.8506 23.0029C54.9542 23.0103 55.0504 23.0177 55.1391 23.0177C56.1376 23.0251 58.2382 23.0621 59.9024 23.0917C59.3995 14.7485 52.4764 8.1435 44.0074 8.1435C41.9956 8.1435 40.0725 8.52071 38.2974 9.20118C37.2027 4.24556 33.1643 0 21.4705 0H5.5459C4.44383 0 3.75597 1.1982 4.3107 2.15235L5.5459 4.27512C6.10063 5.22927 5.41277 6.42752 4.3107 6.42752H1.43347C0.279627 6.42752 -0.400821 7.72927 0.257463 8.67602L2.92757 12.5H2.93497C1.99562 14.8151 1.47785 17.3521 1.47785 20C1.47785 31.0429 10.435 40 21.4779 40H44.0148C52.3876 40 59.2441 33.5429 59.8876 25.3402C58.2234 25.3107 56.1154 25.2736 55.1243 25.2662C54.9986 25.2588 54.8654 25.2515 54.7249 25.2441ZM32.2619 8.94968L29.0962 14.1938L25.9305 8.94968H32.2619ZM19.4216 8.94968L16.256 14.1938L13.0903 8.94968H19.4216Z" fill="white"/>
<path d="M80.3298 17.8772C80.2337 17.2485 80.0266 16.753 79.7085 16.3831C79.3905 16.0133 78.9985 15.8284 78.5399 15.8284C77.8446 15.8284 77.3343 16.1982 77.0088 16.9452C76.6834 17.6923 76.5207 18.6243 76.5207 19.7411C76.5207 20.9098 76.7204 21.8565 77.1198 22.574C77.5192 23.2914 78.0443 23.6538 78.6804 23.6538C79.1612 23.6538 79.5606 23.4467 79.8786 23.0325C80.1893 22.6183 80.4038 22.0858 80.5221 21.4349L83.4437 21.6272C83.281 23.0695 82.7855 24.179 81.9719 24.963C81.1582 25.747 80.0562 26.1391 78.673 26.1391C77.0458 26.1391 75.7662 25.5621 74.8343 24.4009C73.9023 23.2396 73.4437 21.6864 73.4437 19.7263C73.4437 17.781 73.8949 16.2204 74.8047 15.0592C75.7144 13.8979 76.957 13.3136 78.5251 13.3136C79.8564 13.3136 80.929 13.6908 81.7426 14.4526C82.5488 15.2145 83.0591 16.2648 83.2588 17.5961L80.3298 17.8772Z" fill="white"/>
<path d="M88.9689 23.4245H93.6804V25.9393H85.9216V13.5355H88.9689V23.4245Z" fill="white"/>
<path d="M96.5355 24.4527C95.6109 23.321 95.1523 21.7456 95.1523 19.7411C95.1523 17.7367 95.6109 16.1612 96.5355 15.0296C97.4526 13.8979 98.7544 13.3284 100.433 13.3284C102.112 13.3284 103.407 13.8905 104.324 15.0222C105.241 16.1538 105.7 17.7219 105.7 19.7411C105.7 21.7604 105.241 23.3358 104.324 24.4601C103.407 25.5917 102.112 26.1538 100.433 26.1538C98.7544 26.1538 97.46 25.5843 96.5355 24.4527ZM98.8135 16.8861C98.4141 17.5962 98.2218 18.5429 98.2218 19.7411C98.2218 20.932 98.4215 21.8861 98.8135 22.5961C99.2056 23.3062 99.7455 23.6612 100.433 23.6612C101.121 23.6612 101.661 23.3062 102.053 22.5961C102.445 21.8861 102.645 20.9393 102.645 19.7411C102.645 18.5503 102.445 17.5962 102.053 16.8861C101.654 16.176 101.114 15.821 100.433 15.821C99.7455 15.821 99.2056 16.176 98.8135 16.8861Z" fill="white"/>
<path d="M108.385 21.0133V13.5355H111.432V20.7988C111.432 22.6997 111.994 23.6538 113.118 23.6538C113.71 23.6538 114.139 23.4172 114.405 22.9438C114.672 22.4704 114.805 21.7603 114.805 20.7988V13.5355H117.867V21.0133C117.867 24.4378 116.284 26.1538 113.118 26.1538C109.967 26.1538 108.385 24.4378 108.385 21.0133Z" fill="white"/>
<path d="M125.803 13.5355C127.401 13.5355 128.629 14.0829 129.487 15.1849C130.345 16.287 130.781 17.8033 130.781 19.7411C130.781 21.679 130.352 23.1952 129.487 24.2973C128.621 25.3994 127.393 25.9468 125.803 25.9468H121.129V13.5355H125.803ZM125.448 23.4245C126.957 23.4245 127.719 22.1967 127.719 19.7411C127.719 17.2855 126.964 16.0577 125.448 16.0577H124.176V23.4245H125.448Z" fill="white"/>
<path d="M135.862 23.4245H141.425V25.9394H132.268V23.8313L137.667 16.0577H132.652V13.5429H141.247V15.6509L135.862 23.4245Z" fill="white"/>
<path d="M143.725 25.9393V13.5355H146.772V25.9393H143.725Z" fill="white"/>
<path d="M153.081 23.4245H157.793V25.9393H150.034V13.5355H153.081V23.4245Z" fill="white"/>
<path d="M163.303 23.4245H168.015V25.9393H160.256V13.5355H163.303V23.4245Z" fill="white"/>
<path d="M176.927 25.9393L176.358 23.2988H172.941L172.371 25.9393H169.376L172.334 13.5355H177.046L180.019 25.9393H176.927ZM173.436 20.9763H175.862L174.657 15.3402L173.436 20.9763Z" fill="white"/>
</svg>
