<svg width="26" height="26" viewBox="0 0 26 26" fill="none" xmlns="http://www.w3.org/2000/svg">
<path d="M13 0.5C6.09375 0.5 0.500002 6.23538 0.500002 13.3165C0.498584 16.007 1.32352 18.6297 2.85777 20.8124C4.39202 22.9952 6.55768 24.6271 9.0475 25.4768C9.6725 25.5883 9.90625 25.2038 9.90625 24.8667C9.90625 24.563 9.89 23.5543 9.89 22.4803C6.75 23.0737 5.9375 21.6959 5.6875 20.9743C5.54625 20.6052 4.9375 19.4684 4.40625 19.1634C3.96875 18.9237 3.34375 18.3303 4.39 18.3149C5.375 18.2983 6.0775 19.2441 6.3125 19.6286C7.4375 21.5665 9.235 21.0218 9.9525 20.686C10.0625 19.8529 10.39 19.2928 10.75 18.9724C7.96875 18.652 5.0625 17.5459 5.0625 12.6436C5.0625 11.2492 5.54625 10.097 6.34375 9.19855C6.21875 8.87814 5.78125 7.56445 6.46875 5.80218C6.46875 5.80218 7.515 5.46639 9.90625 7.11715C10.9238 6.82758 11.9752 6.68183 13.0313 6.68395C14.0938 6.68395 15.1563 6.8275 16.1563 7.11587C18.5463 5.44973 19.5938 5.80346 19.5938 5.80346C20.2813 7.56573 19.8438 8.87942 19.7188 9.19983C20.515 10.097 21 11.2338 21 12.6436C21 17.5626 18.0788 18.652 15.2975 18.9724C15.75 19.3723 16.1413 20.1413 16.1413 21.3435C16.1413 23.057 16.125 24.4348 16.125 24.868C16.125 25.2038 16.36 25.6037 16.985 25.4755C19.4663 24.6165 21.6224 22.9814 23.1499 20.8002C24.6774 18.6191 25.4993 16.0017 25.5 13.3165C25.5 6.23538 19.9063 0.5 13 0.5Z" fill="white"/>
</svg>
