<svg width="16" height="16" viewBox="0 0 16 16" fill="none" xmlns="http://www.w3.org/2000/svg">
<path d="M7.15625 5.75H8.5625V4.34375H7.15625V5.75ZM7.15625 11.375H8.5625V6.59375H7.15625V11.375ZM7.85938 0.6875C5.9435 0.6875 4.14249 1.4336 2.7881 2.78807C1.43335 4.1428 0.6875 5.94378 0.6875 7.85938C0.6875 11.8141 3.90463 15.0312 7.85938 15.0312H7.8605C9.77587 15.0312 11.5768 14.2851 12.9313 12.9307C14.2854 11.576 15.0312 9.77497 15.0312 7.85938C15.0312 3.90466 11.8141 0.6875 7.85938 0.6875ZM11.9754 11.9752C10.8764 13.0745 9.41497 13.6796 7.86056 13.6796H7.85938C4.65009 13.6796 2.03882 11.0687 2.03882 7.85938C2.03882 6.30468 2.6443 4.84291 3.74331 3.74359C4.84291 2.6443 6.30468 2.03882 7.85938 2.03882C11.0687 2.03882 13.6799 4.65009 13.6799 7.85938C13.6799 9.41407 13.0745 10.8756 11.9754 11.9752Z" fill="#A3A3A3"/>
</svg>
