<svg width="20" height="20" viewBox="0 0 20 20" fill="none" xmlns="http://www.w3.org/2000/svg">
<path d="M3.33341 12.5H5.00008V16.6667H15.0001V3.33333H5.00008V7.5H3.33341V2.5C3.33341 2.27898 3.42121 2.06702 3.57749 1.91074C3.73377 1.75446 3.94573 1.66666 4.16675 1.66666H15.8334C16.0544 1.66666 16.2664 1.75446 16.4227 1.91074C16.5789 2.06702 16.6667 2.27898 16.6667 2.5V17.5C16.6667 17.721 16.5789 17.933 16.4227 18.0893C16.2664 18.2455 16.0544 18.3333 15.8334 18.3333H4.16675C3.94573 18.3333 3.73377 18.2455 3.57749 18.0893C3.42121 17.933 3.33341 17.721 3.33341 17.5V12.5ZM8.33341 9.16667V6.66667L12.5001 10L8.33341 13.3333V10.8333H1.66675V9.16667H8.33341Z" fill="white"/>
</svg>
