<svg width="26" height="26" viewBox="0 0 26 26" fill="none" xmlns="http://www.w3.org/2000/svg">
<path fill-rule="evenodd" clip-rule="evenodd" d="M13 25.5C19.9036 25.5 25.5 19.9036 25.5 13C25.5 6.09644 19.9036 0.5 13 0.5C6.09644 0.5 0.5 6.09644 0.5 13C0.5 19.9036 6.09644 25.5 13 25.5ZM9.10777 17.7845C11.8891 17.7845 14.1439 15.5143 14.1439 12.7138C14.1439 9.91327 11.8893 7.64286 9.10777 7.64286C6.32627 7.64286 4.07143 9.91327 4.07143 12.7138C4.07143 15.5143 6.32644 17.7845 9.10777 17.7845ZM17.1506 17.4876C18.5414 17.4876 19.6688 15.3498 19.6688 12.7137H19.6686C19.6686 10.077 18.5412 7.93987 17.1504 7.93987C15.7597 7.93987 14.6324 10.0777 14.6324 12.7137C14.6324 15.3498 15.7599 17.4876 17.1506 17.4876ZM21.9286 12.7137C21.9286 15.075 21.5321 16.9904 21.0429 16.9904C20.5537 16.9904 20.1574 15.0755 20.1574 12.7137C20.1574 10.3519 20.5539 8.4371 21.0429 8.4371C21.5319 8.4371 21.9286 10.3518 21.9286 12.7137Z" fill="white"/>
</svg>
